# MagicaVoxel @ Ephtracy

# material
mtllib Sword.mtl
usemtl palette

# normals
vn -1 0 0
vn 1 0 0
vn 0 0 1
vn 0 0 -1
vn 0 -1 0
vn 0 1 0

# texcoords
vt 0.908203 0.5
vt 0.912109 0.5

# verts
v -23.5 30 1.5
v -23.5 30 -0.5
v -23.5 32 1.5
v -23.5 32 -0.5
v -22.5 32 1.5
v -22.5 32 -0.5
v -22.5 57 1.5
v -22.5 57 -0.5
v -21.5 23 1.5
v -21.5 23 -0.5
v -21.5 24 1.5
v -21.5 24 -0.5
v -21.5 57 1.5
v -21.5 57 -0.5
v -21.5 64 1.5
v -21.5 64 -0.5
v -20.5 24 1.5
v -20.5 24 -0.5
v -20.5 30 1.5
v -20.5 30 -0.5
v -20.5 64 1.5
v -20.5 64 -0.5
v -20.5 71 1.5
v -20.5 71 -0.5
v -19.5 24 1.5
v -19.5 24 -0.5
v -19.5 30 1.5
v -19.5 30 -0.5
v -19.5 60 1.5
v -19.5 60 -0.5
v -19.5 71 1.5
v -19.5 71 -0.5
v -18.5 23 1.5
v -18.5 23 -0.5
v -18.5 24 1.5
v -18.5 24 -0.5
v -18.5 49 1.5
v -18.5 49 -0.5
v -18.5 60 1.5
v -18.5 60 -0.5
v -17.5 32 1.5
v -17.5 32 -0.5
v -17.5 49 1.5
v -17.5 49 -0.5
v -16.5 30 1.5
v -16.5 30 -0.5
v -16.5 32 1.5
v -16.5 32 -0.5
v -23.5 30 1.5
v -23.5 32 1.5
v -22.5 31 1.5
v -22.5 32 1.5
v -22.5 57 1.5
v -21.5 23 1.5
v -21.5 24 1.5
v -21.5 57 1.5
v -21.5 64 1.5
v -20.5 24 1.5
v -20.5 30 1.5
v -20.5 64 1.5
v -20.5 71 1.5
v -19.5 24 1.5
v -19.5 30 1.5
v -19.5 60 1.5
v -19.5 71 1.5
v -18.5 23 1.5
v -18.5 24 1.5
v -18.5 49 1.5
v -18.5 60 1.5
v -17.5 31 1.5
v -17.5 32 1.5
v -17.5 49 1.5
v -16.5 30 1.5
v -16.5 32 1.5
v -23.5 30 -0.5
v -23.5 32 -0.5
v -22.5 31 -0.5
v -22.5 32 -0.5
v -22.5 57 -0.5
v -21.5 23 -0.5
v -21.5 24 -0.5
v -21.5 57 -0.5
v -21.5 64 -0.5
v -20.5 24 -0.5
v -20.5 30 -0.5
v -20.5 64 -0.5
v -20.5 71 -0.5
v -19.5 24 -0.5
v -19.5 30 -0.5
v -19.5 60 -0.5
v -19.5 71 -0.5
v -18.5 23 -0.5
v -18.5 24 -0.5
v -18.5 49 -0.5
v -18.5 60 -0.5
v -17.5 31 -0.5
v -17.5 32 -0.5
v -17.5 49 -0.5
v -16.5 30 -0.5
v -16.5 32 -0.5
v -21.5 23 1.5
v -18.5 23 1.5
v -21.5 23 -0.5
v -18.5 23 -0.5
v -23.5 30 1.5
v -20.5 30 1.5
v -19.5 30 1.5
v -16.5 30 1.5
v -23.5 30 -0.5
v -20.5 30 -0.5
v -19.5 30 -0.5
v -16.5 30 -0.5
v -21.5 24 1.5
v -20.5 24 1.5
v -19.5 24 1.5
v -18.5 24 1.5
v -21.5 24 -0.5
v -20.5 24 -0.5
v -19.5 24 -0.5
v -18.5 24 -0.5
v -23.5 32 1.5
v -22.5 32 1.5
v -17.5 32 1.5
v -16.5 32 1.5
v -23.5 32 -0.5
v -22.5 32 -0.5
v -17.5 32 -0.5
v -16.5 32 -0.5
v -18.5 49 1.5
v -17.5 49 1.5
v -18.5 49 -0.5
v -17.5 49 -0.5
v -22.5 57 1.5
v -21.5 57 1.5
v -22.5 57 -0.5
v -21.5 57 -0.5
v -19.5 60 1.5
v -18.5 60 1.5
v -19.5 60 -0.5
v -18.5 60 -0.5
v -21.5 64 1.5
v -20.5 64 1.5
v -21.5 64 -0.5
v -20.5 64 -0.5
v -20.5 71 1.5
v -19.5 71 1.5
v -20.5 71 -0.5
v -19.5 71 -0.5

# faces
f 3/1/1 2/1/1 1/1/1
f 4/1/1 2/1/1 3/1/1
f 7/2/1 6/2/1 5/2/1
f 8/2/1 6/2/1 7/2/1
f 11/1/1 10/1/1 9/1/1
f 12/1/1 10/1/1 11/1/1
f 15/2/1 14/2/1 13/2/1
f 16/2/1 14/2/1 15/2/1
f 19/1/1 18/1/1 17/1/1
f 20/1/1 18/1/1 19/1/1
f 23/2/1 22/2/1 21/2/1
f 24/2/1 22/2/1 23/2/1
f 25/1/2 26/1/2 27/1/2
f 27/1/2 26/1/2 28/1/2
f 29/2/2 30/2/2 31/2/2
f 31/2/2 30/2/2 32/2/2
f 33/1/2 34/1/2 35/1/2
f 35/1/2 34/1/2 36/1/2
f 37/2/2 38/2/2 39/2/2
f 39/2/2 38/2/2 40/2/2
f 41/2/2 42/2/2 43/2/2
f 43/2/2 42/2/2 44/2/2
f 45/1/2 46/1/2 47/1/2
f 47/1/2 46/1/2 48/1/2
f 51/1/3 50/1/3 49/1/3
f 52/1/3 50/1/3 51/1/3
f 56/2/3 52/2/3 51/2/3
f 56/2/3 53/2/3 52/2/3
f 58/1/3 55/1/3 54/1/3
f 59/1/3 51/1/3 49/1/3
f 60/2/3 57/2/3 56/2/3
f 62/1/3 58/1/3 54/1/3
f 62/1/3 59/1/3 58/1/3
f 63/1/3 51/1/3 59/1/3
f 63/1/3 59/1/3 62/1/3
f 64/2/3 61/2/3 60/2/3
f 64/2/3 60/2/3 56/2/3
f 65/2/3 61/2/3 64/2/3
f 66/1/3 62/1/3 54/1/3
f 67/1/3 62/1/3 66/1/3
f 68/2/3 56/2/3 51/2/3
f 68/2/3 64/2/3 56/2/3
f 69/2/3 64/2/3 68/2/3
f 70/1/3 51/1/3 63/1/3
f 70/2/3 68/2/3 51/2/3
f 71/2/3 68/2/3 70/2/3
f 72/2/3 68/2/3 71/2/3
f 73/1/3 70/1/3 63/1/3
f 73/1/3 71/1/3 70/1/3
f 74/1/3 71/1/3 73/1/3
f 75/1/4 76/1/4 77/1/4
f 77/1/4 76/1/4 78/1/4
f 77/2/4 78/2/4 82/2/4
f 78/2/4 79/2/4 82/2/4
f 80/1/4 81/1/4 84/1/4
f 75/1/4 77/1/4 85/1/4
f 82/2/4 83/2/4 86/2/4
f 80/1/4 84/1/4 88/1/4
f 84/1/4 85/1/4 88/1/4
f 85/1/4 77/1/4 89/1/4
f 88/1/4 85/1/4 89/1/4
f 86/2/4 87/2/4 90/2/4
f 82/2/4 86/2/4 90/2/4
f 90/2/4 87/2/4 91/2/4
f 80/1/4 88/1/4 92/1/4
f 92/1/4 88/1/4 93/1/4
f 77/2/4 82/2/4 94/2/4
f 82/2/4 90/2/4 94/2/4
f 94/2/4 90/2/4 95/2/4
f 89/1/4 77/1/4 96/1/4
f 77/2/4 94/2/4 96/2/4
f 96/2/4 94/2/4 97/2/4
f 97/2/4 94/2/4 98/2/4
f 89/1/4 96/1/4 99/1/4
f 96/1/4 97/1/4 99/1/4
f 99/1/4 97/1/4 100/1/4
f 103/1/5 102/1/5 101/1/5
f 104/1/5 102/1/5 103/1/5
f 109/1/5 106/1/5 105/1/5
f 110/1/5 106/1/5 109/1/5
f 111/1/5 108/1/5 107/1/5
f 112/1/5 108/1/5 111/1/5
f 113/1/6 114/1/6 117/1/6
f 117/1/6 114/1/6 118/1/6
f 115/1/6 116/1/6 119/1/6
f 119/1/6 116/1/6 120/1/6
f 121/1/6 122/1/6 125/1/6
f 125/1/6 122/1/6 126/1/6
f 123/1/6 124/1/6 127/1/6
f 127/1/6 124/1/6 128/1/6
f 129/2/6 130/2/6 131/2/6
f 131/2/6 130/2/6 132/2/6
f 133/2/6 134/2/6 135/2/6
f 135/2/6 134/2/6 136/2/6
f 137/2/6 138/2/6 139/2/6
f 139/2/6 138/2/6 140/2/6
f 141/2/6 142/2/6 143/2/6
f 143/2/6 142/2/6 144/2/6
f 145/2/6 146/2/6 147/2/6
f 147/2/6 146/2/6 148/2/6
