# MagicaVoxel @ Ephtracy

# material
mtllib TopLeftLeg.mtl
usemtl palette

# normals
vn -1 0 0
vn 1 0 0
vn 0 0 1
vn 0 0 -1
vn 0 -1 0
vn 0 1 0

# texcoords
vt 0.599609 0.5
vt 0.603516 0.5

# verts
v 2.5 8 1.5
v 2.5 8 -0.5
v 2.5 11 1.5
v 2.5 11 -0.5
v 2.5 14 1.5
v 2.5 14 -0.5
v 2.5 15 1.5
v 2.5 15 -0.5
v 4.5 8 1.5
v 4.5 8 -0.5
v 4.5 11 1.5
v 4.5 11 -0.5
v 4.5 14 1.5
v 4.5 14 -0.5
v 4.5 15 1.5
v 4.5 15 -0.5
v 2.5 8 1.5
v 2.5 11 1.5
v 2.5 14 1.5
v 2.5 15 1.5
v 3.5 8 1.5
v 3.5 11 1.5
v 3.5 14 1.5
v 3.5 15 1.5
v 4.5 8 1.5
v 4.5 11 1.5
v 4.5 14 1.5
v 4.5 15 1.5
v 2.5 8 -0.5
v 2.5 11 -0.5
v 2.5 14 -0.5
v 2.5 15 -0.5
v 3.5 8 -0.5
v 3.5 11 -0.5
v 3.5 14 -0.5
v 3.5 15 -0.5
v 4.5 8 -0.5
v 4.5 11 -0.5
v 4.5 14 -0.5
v 4.5 15 -0.5
v 2.5 8 1.5
v 3.5 8 1.5
v 4.5 8 1.5
v 2.5 8 -0.5
v 3.5 8 -0.5
v 4.5 8 -0.5
v 2.5 15 1.5
v 3.5 15 1.5
v 4.5 15 1.5
v 2.5 15 -0.5
v 3.5 15 -0.5
v 4.5 15 -0.5

# faces
f 3/2/1 2/2/1 1/2/1
f 4/2/1 2/2/1 3/2/1
f 5/1/1 4/1/1 3/1/1
f 6/1/1 4/1/1 5/1/1
f 7/2/1 6/2/1 5/2/1
f 8/2/1 6/2/1 7/2/1
f 9/1/2 10/1/2 11/1/2
f 11/1/2 10/1/2 12/1/2
f 11/2/2 12/2/2 13/2/2
f 13/2/2 12/2/2 14/2/2
f 13/1/2 14/1/2 15/1/2
f 15/1/2 14/1/2 16/1/2
f 21/2/3 18/2/3 17/2/3
f 22/1/3 19/1/3 18/1/3
f 22/2/3 18/2/3 21/2/3
f 23/2/3 20/2/3 19/2/3
f 23/1/3 19/1/3 22/1/3
f 24/2/3 20/2/3 23/2/3
f 25/1/3 22/1/3 21/1/3
f 26/2/3 23/2/3 22/2/3
f 26/1/3 22/1/3 25/1/3
f 27/1/3 24/1/3 23/1/3
f 27/2/3 23/2/3 26/2/3
f 28/1/3 24/1/3 27/1/3
f 29/2/4 30/2/4 33/2/4
f 30/1/4 31/1/4 34/1/4
f 33/2/4 30/2/4 34/2/4
f 31/2/4 32/2/4 35/2/4
f 34/1/4 31/1/4 35/1/4
f 35/2/4 32/2/4 36/2/4
f 33/1/4 34/1/4 37/1/4
f 34/2/4 35/2/4 38/2/4
f 37/1/4 34/1/4 38/1/4
f 35/1/4 36/1/4 39/1/4
f 38/2/4 35/2/4 39/2/4
f 39/1/4 36/1/4 40/1/4
f 44/2/5 42/2/5 41/2/5
f 45/1/5 43/1/5 42/1/5
f 45/2/5 42/2/5 44/2/5
f 46/1/5 43/1/5 45/1/5
f 47/2/6 48/2/6 50/2/6
f 48/1/6 49/1/6 51/1/6
f 50/2/6 48/2/6 51/2/6
f 51/1/6 49/1/6 52/1/6
