# MagicaVoxel @ Ephtracy

# material
mtllib Jaw.mtl
usemtl palette

# normals
vn -1 0 0
vn 1 0 0
vn 0 0 1
vn 0 0 -1
vn 0 -1 0
vn 0 1 0

# texcoords
vt 0.876953 0.5
vt 0.994141 0.5

# verts
v -2.5 18 3.5
v -2.5 18 1.5
v -2.5 19 3.5
v -2.5 19 2.5
v -2.5 20 3.5
v -2.5 20 2.5
v -2.5 20 1.5
v -1.5 18 7.5
v -1.5 18 3.5
v -1.5 19 7.5
v -1.5 19 6.5
v -1.5 19 5.5
v -1.5 19 4.5
v -1.5 19 3.5
v -1.5 20 7.5
v -1.5 20 6.5
v -1.5 20 5.5
v -1.5 20 4.5
v -0.5 18 9.5
v -0.5 18 7.5
v -0.5 19 9.5
v -0.5 19 7.5
v 0.5 19 7.5
v 0.5 19 6.5
v 0.5 19 5.5
v 0.5 19 4.5
v 0.5 20 7.5
v 0.5 20 6.5
v 0.5 20 5.5
v 0.5 20 4.5
v 1.5 19 3.5
v 1.5 19 2.5
v 1.5 20 3.5
v 1.5 20 2.5
v -1.5 19 3.5
v -1.5 19 2.5
v -1.5 20 3.5
v -1.5 20 2.5
v -0.5 19 7.5
v -0.5 19 6.5
v -0.5 19 5.5
v -0.5 19 4.5
v -0.5 20 7.5
v -0.5 20 6.5
v -0.5 20 5.5
v -0.5 20 4.5
v 0.5 18 9.5
v 0.5 18 7.5
v 0.5 19 9.5
v 0.5 19 7.5
v 1.5 18 7.5
v 1.5 18 3.5
v 1.5 19 7.5
v 1.5 19 6.5
v 1.5 19 5.5
v 1.5 19 4.5
v 1.5 19 3.5
v 1.5 20 7.5
v 1.5 20 6.5
v 1.5 20 5.5
v 1.5 20 4.5
v 2.5 18 3.5
v 2.5 18 1.5
v 2.5 19 3.5
v 2.5 19 2.5
v 2.5 20 3.5
v 2.5 20 2.5
v 2.5 20 1.5
v -0.5 18 9.5
v -0.5 19 9.5
v 0.5 18 9.5
v 0.5 19 9.5
v -1.5 18 7.5
v -1.5 19 7.5
v -1.5 20 7.5
v -0.5 18 7.5
v -0.5 19 7.5
v -0.5 20 7.5
v 0.5 18 7.5
v 0.5 19 7.5
v 0.5 20 7.5
v 1.5 18 7.5
v 1.5 19 7.5
v 1.5 20 7.5
v -1.5 19 5.5
v -1.5 20 5.5
v -0.5 19 5.5
v -0.5 20 5.5
v 0.5 19 5.5
v 0.5 20 5.5
v 1.5 19 5.5
v 1.5 20 5.5
v -2.5 18 3.5
v -2.5 19 3.5
v -2.5 20 3.5
v -1.5 18 3.5
v -1.5 19 3.5
v -1.5 20 3.5
v 1.5 18 3.5
v 1.5 19 3.5
v 1.5 20 3.5
v 2.5 18 3.5
v 2.5 19 3.5
v 2.5 20 3.5
v -1.5 19 2.5
v -1.5 20 2.5
v 1.5 19 2.5
v 1.5 20 2.5
v -1.5 19 6.5
v -1.5 20 6.5
v -0.5 19 6.5
v -0.5 20 6.5
v 0.5 19 6.5
v 0.5 20 6.5
v 1.5 19 6.5
v 1.5 20 6.5
v -1.5 19 4.5
v -1.5 20 4.5
v -0.5 19 4.5
v -0.5 20 4.5
v 0.5 19 4.5
v 0.5 20 4.5
v 1.5 19 4.5
v 1.5 20 4.5
v -2.5 18 1.5
v -2.5 20 1.5
v 2.5 18 1.5
v 2.5 20 1.5
v -0.5 18 9.5
v 0.5 18 9.5
v -1.5 18 7.5
v -0.5 18 7.5
v 0.5 18 7.5
v 1.5 18 7.5
v -2.5 18 3.5
v -1.5 18 3.5
v 1.5 18 3.5
v 2.5 18 3.5
v -2.5 18 1.5
v 2.5 18 1.5
v -0.5 19 9.5
v 0.5 19 9.5
v -0.5 19 7.5
v 0.5 19 7.5
v -1.5 19 6.5
v -0.5 19 6.5
v 0.5 19 6.5
v 1.5 19 6.5
v -1.5 19 5.5
v -0.5 19 5.5
v 0.5 19 5.5
v 1.5 19 5.5
v -1.5 19 4.5
v -0.5 19 4.5
v 0.5 19 4.5
v 1.5 19 4.5
v -1.5 19 3.5
v 1.5 19 3.5
v -1.5 19 2.5
v 1.5 19 2.5
v -1.5 20 7.5
v -0.5 20 7.5
v 0.5 20 7.5
v 1.5 20 7.5
v -1.5 20 6.5
v -0.5 20 6.5
v 0.5 20 6.5
v 1.5 20 6.5
v -1.5 20 5.5
v -0.5 20 5.5
v 0.5 20 5.5
v 1.5 20 5.5
v -1.5 20 4.5
v -0.5 20 4.5
v 0.5 20 4.5
v 1.5 20 4.5
v -2.5 20 3.5
v -1.5 20 3.5
v 1.5 20 3.5
v 2.5 20 3.5
v -2.5 20 2.5
v -1.5 20 2.5
v 1.5 20 2.5
v 2.5 20 2.5
v -2.5 20 1.5
v 2.5 20 1.5

# faces
f 3/1/1 2/1/1 1/1/1
f 4/1/1 2/1/1 3/1/1
f 5/2/1 4/2/1 3/2/1
f 6/1/1 2/1/1 4/1/1
f 6/2/1 4/2/1 5/2/1
f 7/1/1 2/1/1 6/1/1
f 10/1/1 9/1/1 8/1/1
f 11/1/1 9/1/1 10/1/1
f 12/1/1 9/1/1 11/1/1
f 13/1/1 9/1/1 12/1/1
f 14/1/1 9/1/1 13/1/1
f 15/2/1 11/2/1 10/2/1
f 16/2/1 11/2/1 15/2/1
f 17/2/1 13/2/1 12/2/1
f 18/2/1 13/2/1 17/2/1
f 21/1/1 20/1/1 19/1/1
f 22/1/1 20/1/1 21/1/1
f 27/2/1 24/2/1 23/2/1
f 28/2/1 24/2/1 27/2/1
f 29/2/1 26/2/1 25/2/1
f 30/2/1 26/2/1 29/2/1
f 33/2/1 32/2/1 31/2/1
f 34/2/1 32/2/1 33/2/1
f 35/2/2 36/2/2 37/2/2
f 37/2/2 36/2/2 38/2/2
f 39/2/2 40/2/2 43/2/2
f 43/2/2 40/2/2 44/2/2
f 41/2/2 42/2/2 45/2/2
f 45/2/2 42/2/2 46/2/2
f 47/1/2 48/1/2 49/1/2
f 49/1/2 48/1/2 50/1/2
f 51/1/2 52/1/2 53/1/2
f 53/1/2 52/1/2 54/1/2
f 54/1/2 52/1/2 55/1/2
f 55/1/2 52/1/2 56/1/2
f 56/1/2 52/1/2 57/1/2
f 53/2/2 54/2/2 58/2/2
f 58/2/2 54/2/2 59/2/2
f 55/2/2 56/2/2 60/2/2
f 60/2/2 56/2/2 61/2/2
f 62/1/2 63/1/2 64/1/2
f 64/1/2 63/1/2 65/1/2
f 64/2/2 65/2/2 66/2/2
f 65/1/2 63/1/2 67/1/2
f 66/2/2 65/2/2 67/2/2
f 67/1/2 63/1/2 68/1/2
f 71/1/3 70/1/3 69/1/3
f 72/1/3 70/1/3 71/1/3
f 76/1/3 74/1/3 73/1/3
f 77/2/3 75/2/3 74/2/3
f 77/1/3 74/1/3 76/1/3
f 78/2/3 75/2/3 77/2/3
f 82/1/3 80/1/3 79/1/3
f 83/2/3 81/2/3 80/2/3
f 83/1/3 80/1/3 82/1/3
f 84/2/3 81/2/3 83/2/3
f 87/2/3 86/2/3 85/2/3
f 88/2/3 86/2/3 87/2/3
f 91/2/3 90/2/3 89/2/3
f 92/2/3 90/2/3 91/2/3
f 96/1/3 94/1/3 93/1/3
f 97/2/3 95/2/3 94/2/3
f 97/1/3 94/1/3 96/1/3
f 98/2/3 95/2/3 97/2/3
f 102/1/3 100/1/3 99/1/3
f 103/2/3 101/2/3 100/2/3
f 103/1/3 100/1/3 102/1/3
f 104/2/3 101/2/3 103/2/3
f 107/1/3 106/1/3 105/1/3
f 108/1/3 106/1/3 107/1/3
f 109/2/4 110/2/4 111/2/4
f 111/2/4 110/2/4 112/2/4
f 113/2/4 114/2/4 115/2/4
f 115/2/4 114/2/4 116/2/4
f 117/2/4 118/2/4 119/2/4
f 119/2/4 118/2/4 120/2/4
f 121/2/4 122/2/4 123/2/4
f 123/2/4 122/2/4 124/2/4
f 125/1/4 126/1/4 127/1/4
f 127/1/4 126/1/4 128/1/4
f 132/1/5 130/1/5 129/1/5
f 133/1/5 130/1/5 132/1/5
f 136/1/5 132/1/5 131/1/5
f 136/1/5 134/1/5 133/1/5
f 136/1/5 133/1/5 132/1/5
f 137/1/5 134/1/5 136/1/5
f 139/1/5 136/1/5 135/1/5
f 139/1/5 138/1/5 137/1/5
f 139/1/5 137/1/5 136/1/5
f 140/1/5 138/1/5 139/1/5
f 141/1/6 142/1/6 143/1/6
f 143/1/6 142/1/6 144/1/6
f 143/1/6 144/1/6 146/1/6
f 146/1/6 144/1/6 147/1/6
f 146/1/6 147/1/6 149/1/6
f 147/1/6 148/1/6 149/1/6
f 145/1/6 146/1/6 149/1/6
f 149/1/6 148/1/6 150/1/6
f 150/1/6 148/1/6 151/1/6
f 151/1/6 148/1/6 152/1/6
f 150/1/6 151/1/6 154/1/6
f 154/1/6 151/1/6 155/1/6
f 153/1/6 154/1/6 157/1/6
f 155/1/6 156/1/6 157/1/6
f 154/1/6 155/1/6 157/1/6
f 157/1/6 156/1/6 158/1/6
f 157/1/6 158/1/6 159/1/6
f 159/1/6 158/1/6 160/1/6
f 161/2/6 162/2/6 165/2/6
f 165/2/6 162/2/6 166/2/6
f 163/2/6 164/2/6 167/2/6
f 167/2/6 164/2/6 168/2/6
f 169/2/6 170/2/6 173/2/6
f 173/2/6 170/2/6 174/2/6
f 171/2/6 172/2/6 175/2/6
f 175/2/6 172/2/6 176/2/6
f 177/2/6 178/2/6 181/2/6
f 181/2/6 178/2/6 182/2/6
f 179/2/6 180/2/6 183/2/6
f 183/2/6 180/2/6 184/2/6
f 181/1/6 182/1/6 185/1/6
f 182/1/6 183/1/6 185/1/6
f 183/1/6 184/1/6 185/1/6
f 185/1/6 184/1/6 186/1/6
