# MagicaVoxel @ Ephtracy

# material
mtllib BottomBody.mtl
usemtl palette

# normals
vn -1 0 0
vn 1 0 0
vn 0 0 1
vn 0 0 -1
vn 0 -1 0
vn 0 1 0

# texcoords
vt 0.876953 0.5
vt 0.880859 0.5

# verts
v -5.5 0 2.5
v -5.5 0 0.5
v -5.5 0 -0.5
v -5.5 0 -2.5
v -5.5 1 -0.5
v -5.5 1 -2.5
v -5.5 1 -4.5
v -5.5 1 -5.5
v -5.5 2 2.5
v -5.5 2 0.5
v -5.5 2 -4.5
v -5.5 2 -5.5
v -4.5 0 3.5
v -4.5 0 2.5
v -4.5 0 0.5
v -4.5 0 -0.5
v -4.5 0 -2.5
v -4.5 0 -6.5
v -4.5 1 -0.5
v -4.5 1 -2.5
v -4.5 1 -4.5
v -4.5 1 -5.5
v -4.5 2 2.5
v -4.5 2 0.5
v -4.5 2 -4.5
v -4.5 2 -5.5
v -4.5 2 -6.5
v -4.5 2 -7.5
v -4.5 3 3.5
v -4.5 3 2.5
v -4.5 3 -6.5
v -4.5 3 -7.5
v -1.5 0 3.5
v -1.5 0 2.5
v -1.5 0 -6.5
v -1.5 0 -7.5
v -1.5 1 3.5
v -1.5 1 2.5
v -1.5 1 -6.5
v -1.5 1 -7.5
v -1.5 2 3.5
v -1.5 2 2.5
v -1.5 3 3.5
v -1.5 3 2.5
v -0.5 1 -6.5
v -0.5 1 -7.5
v -0.5 2 -6.5
v -0.5 2 -7.5
v 1.5 1 3.5
v 1.5 1 2.5
v 1.5 2 3.5
v 1.5 2 2.5
v 2.5 0 3.5
v 2.5 0 2.5
v 2.5 1 3.5
v 2.5 1 2.5
v 2.5 2 3.5
v 2.5 2 2.5
v 2.5 2 -6.5
v 2.5 2 -7.5
v 2.5 3 3.5
v 2.5 3 2.5
v 2.5 3 -6.5
v 2.5 3 -7.5
v 3.5 1 -6.5
v 3.5 1 -7.5
v 3.5 2 -6.5
v 3.5 2 -7.5
v -3.5 0 3.5
v -3.5 0 2.5
v -3.5 1 3.5
v -3.5 1 2.5
v -3.5 2 3.5
v -3.5 2 2.5
v -3.5 3 3.5
v -3.5 3 2.5
v -2.5 1 3.5
v -2.5 1 2.5
v -2.5 2 3.5
v -2.5 2 2.5
v -2.5 2 -6.5
v -2.5 2 -7.5
v -2.5 3 -6.5
v -2.5 3 -7.5
v 0.5 0 3.5
v 0.5 0 2.5
v 0.5 1 3.5
v 0.5 1 2.5
v 0.5 2 3.5
v 0.5 2 2.5
v 0.5 3 3.5
v 0.5 3 2.5
v 1.5 0 -6.5
v 1.5 0 -7.5
v 1.5 2 -6.5
v 1.5 2 -7.5
v 3.5 2 3.5
v 3.5 2 2.5
v 3.5 3 3.5
v 3.5 3 2.5
v 4.5 0 3.5
v 4.5 0 2.5
v 4.5 0 0.5
v 4.5 0 -0.5
v 4.5 0 -3.5
v 4.5 0 -4.5
v 4.5 0 -5.5
v 4.5 0 -6.5
v 4.5 1 2.5
v 4.5 1 0.5
v 4.5 1 -0.5
v 4.5 1 -1.5
v 4.5 1 -5.5
v 4.5 1 -6.5
v 4.5 1 -7.5
v 4.5 2 3.5
v 4.5 2 2.5
v 4.5 2 1.5
v 4.5 2 -0.5
v 4.5 2 -1.5
v 4.5 2 -3.5
v 4.5 2 -5.5
v 4.5 2 -6.5
v 4.5 3 2.5
v 4.5 3 1.5
v 4.5 3 -0.5
v 4.5 3 -4.5
v 4.5 3 -5.5
v 4.5 3 -6.5
v 4.5 3 -7.5
v 5.5 0 2.5
v 5.5 0 0.5
v 5.5 0 -0.5
v 5.5 0 -3.5
v 5.5 0 -4.5
v 5.5 0 -5.5
v 5.5 1 2.5
v 5.5 1 0.5
v 5.5 1 -0.5
v 5.5 1 -1.5
v 5.5 1 -5.5
v 5.5 1 -6.5
v 5.5 2 1.5
v 5.5 2 -0.5
v 5.5 2 -1.5
v 5.5 2 -3.5
v 5.5 2 -5.5
v 5.5 2 -6.5
v 5.5 3 1.5
v 5.5 3 -0.5
v 5.5 3 -4.5
v 5.5 3 -5.5
v -4.5 0 3.5
v -4.5 3 3.5
v -3.5 0 3.5
v -3.5 1 3.5
v -3.5 2 3.5
v -3.5 3 3.5
v -2.5 1 3.5
v -2.5 2 3.5
v -1.5 0 3.5
v -1.5 1 3.5
v -1.5 2 3.5
v -1.5 3 3.5
v 0.5 0 3.5
v 0.5 1 3.5
v 0.5 2 3.5
v 0.5 3 3.5
v 1.5 1 3.5
v 1.5 2 3.5
v 2.5 0 3.5
v 2.5 1 3.5
v 2.5 2 3.5
v 2.5 3 3.5
v 3.5 2 3.5
v 3.5 3 3.5
v 4.5 0 3.5
v 4.5 2 3.5
v -5.5 0 2.5
v -5.5 2 2.5
v -4.5 0 2.5
v -4.5 2 2.5
v -3.5 0 2.5
v -3.5 1 2.5
v -3.5 2 2.5
v -3.5 3 2.5
v -2.5 1 2.5
v -2.5 2 2.5
v -1.5 0 2.5
v -1.5 1 2.5
v -1.5 2 2.5
v -1.5 3 2.5
v 0.5 0 2.5
v 0.5 1 2.5
v 0.5 2 2.5
v 0.5 3 2.5
v 1.5 1 2.5
v 1.5 2 2.5
v 2.5 0 2.5
v 2.5 1 2.5
v 2.5 2 2.5
v 2.5 3 2.5
v 3.5 2 2.5
v 3.5 3 2.5
v 4.5 0 2.5
v 4.5 1 2.5
v 4.5 2 2.5
v 4.5 3 2.5
v 5.5 0 2.5
v 5.5 1 2.5
v 4.5 2 1.5
v 4.5 3 1.5
v 5.5 2 1.5
v 5.5 3 1.5
v -5.5 0 -0.5
v -5.5 1 -0.5
v -4.5 0 -0.5
v -4.5 1 -0.5
v 4.5 0 -0.5
v 4.5 1 -0.5
v 5.5 0 -0.5
v 5.5 1 -0.5
v 4.5 1 -1.5
v 4.5 2 -1.5
v 5.5 1 -1.5
v 5.5 2 -1.5
v -5.5 1 -4.5
v -5.5 2 -4.5
v -4.5 1 -4.5
v -4.5 2 -4.5
v 4.5 0 -4.5
v 4.5 3 -4.5
v 5.5 0 -4.5
v 5.5 3 -4.5
v -5.5 0 0.5
v -5.5 2 0.5
v -4.5 0 0.5
v -4.5 2 0.5
v 4.5 0 0.5
v 4.5 1 0.5
v 5.5 0 0.5
v 5.5 1 0.5
v 4.5 2 -0.5
v 4.5 3 -0.5
v 5.5 2 -0.5
v 5.5 3 -0.5
v -5.5 0 -2.5
v -5.5 1 -2.5
v -4.5 0 -2.5
v -4.5 1 -2.5
v 4.5 0 -3.5
v 4.5 2 -3.5
v 5.5 0 -3.5
v 5.5 2 -3.5
v -5.5 1 -5.5
v -5.5 2 -5.5
v -4.5 1 -5.5
v -4.5 2 -5.5
v 4.5 0 -5.5
v 4.5 1 -5.5
v 4.5 2 -5.5
v 4.5 3 -5.5
v 5.5 0 -5.5
v 5.5 1 -5.5
v 5.5 2 -5.5
v 5.5 3 -5.5
v -4.5 0 -6.5
v -4.5 2 -6.5
v -2.5 2 -6.5
v -2.5 3 -6.5
v -1.5 0 -6.5
v -1.5 1 -6.5
v -0.5 1 -6.5
v -0.5 2 -6.5
v 1.5 0 -6.5
v 1.5 2 -6.5
v 2.5 2 -6.5
v 2.5 3 -6.5
v 3.5 1 -6.5
v 3.5 2 -6.5
v 4.5 0 -6.5
v 4.5 1 -6.5
v 4.5 2 -6.5
v 5.5 1 -6.5
v 5.5 2 -6.5
v -4.5 2 -7.5
v -4.5 3 -7.5
v -2.5 2 -7.5
v -2.5 3 -7.5
v -1.5 0 -7.5
v -1.5 1 -7.5
v -0.5 1 -7.5
v -0.5 2 -7.5
v 1.5 0 -7.5
v 1.5 2 -7.5
v 2.5 2 -7.5
v 2.5 3 -7.5
v 3.5 1 -7.5
v 3.5 2 -7.5
v 4.5 1 -7.5
v 4.5 3 -7.5
v -4.5 0 3.5
v -3.5 0 3.5
v -1.5 0 3.5
v 0.5 0 3.5
v 2.5 0 3.5
v 4.5 0 3.5
v -5.5 0 2.5
v -4.5 0 2.5
v -3.5 0 2.5
v -1.5 0 2.5
v 0.5 0 2.5
v 2.5 0 2.5
v 4.5 0 2.5
v 5.5 0 2.5
v -5.5 0 0.5
v -4.5 0 0.5
v 4.5 0 0.5
v 5.5 0 0.5
v -5.5 0 -0.5
v -4.5 0 -0.5
v 4.5 0 -0.5
v 5.5 0 -0.5
v -5.5 0 -2.5
v -4.5 0 -2.5
v 4.5 0 -3.5
v 5.5 0 -3.5
v 4.5 0 -4.5
v 5.5 0 -4.5
v 4.5 0 -5.5
v 5.5 0 -5.5
v -4.5 0 -6.5
v -1.5 0 -6.5
v 1.5 0 -6.5
v 4.5 0 -6.5
v -1.5 0 -7.5
v 1.5 0 -7.5
v -3.5 1 3.5
v -2.5 1 3.5
v 1.5 1 3.5
v 2.5 1 3.5
v -3.5 1 2.5
v -2.5 1 2.5
v 1.5 1 2.5
v 2.5 1 2.5
v -5.5 1 -4.5
v -4.5 1 -4.5
v -5.5 1 -5.5
v -4.5 1 -5.5
v 4.5 1 -5.5
v 5.5 1 -5.5
v 3.5 1 -6.5
v 4.5 1 -6.5
v 5.5 1 -6.5
v 3.5 1 -7.5
v 4.5 1 -7.5
v -1.5 2 3.5
v 0.5 2 3.5
v -1.5 2 2.5
v 0.5 2 2.5
v 4.5 2 1.5
v 5.5 2 1.5
v 4.5 2 -0.5
v 5.5 2 -0.5
v -4.5 2 -6.5
v -2.5 2 -6.5
v 2.5 2 -6.5
v 3.5 2 -6.5
v -4.5 2 -7.5
v -2.5 2 -7.5
v 2.5 2 -7.5
v 3.5 2 -7.5
v -1.5 1 3.5
v 0.5 1 3.5
v -1.5 1 2.5
v 0.5 1 2.5
v 4.5 1 2.5
v 5.5 1 2.5
v 4.5 1 0.5
v 5.5 1 0.5
v -5.5 1 -0.5
v -4.5 1 -0.5
v 4.5 1 -0.5
v 5.5 1 -0.5
v 4.5 1 -1.5
v 5.5 1 -1.5
v -5.5 1 -2.5
v -4.5 1 -2.5
v -1.5 1 -6.5
v -0.5 1 -6.5
v -1.5 1 -7.5
v -0.5 1 -7.5
v -3.5 2 3.5
v -2.5 2 3.5
v 1.5 2 3.5
v 2.5 2 3.5
v 3.5 2 3.5
v 4.5 2 3.5
v -5.5 2 2.5
v -4.5 2 2.5
v -3.5 2 2.5
v -2.5 2 2.5
v 1.5 2 2.5
v 2.5 2 2.5
v 3.5 2 2.5
v 4.5 2 2.5
v -5.5 2 0.5
v -4.5 2 0.5
v 4.5 2 -1.5
v 5.5 2 -1.5
v 4.5 2 -3.5
v 5.5 2 -3.5
v -5.5 2 -4.5
v -4.5 2 -4.5
v -5.5 2 -5.5
v -4.5 2 -5.5
v 4.5 2 -5.5
v 5.5 2 -5.5
v -0.5 2 -6.5
v 1.5 2 -6.5
v 4.5 2 -6.5
v 5.5 2 -6.5
v -0.5 2 -7.5
v 1.5 2 -7.5
v -4.5 3 3.5
v -3.5 3 3.5
v -1.5 3 3.5
v 0.5 3 3.5
v 2.5 3 3.5
v 3.5 3 3.5
v -4.5 3 2.5
v -3.5 3 2.5
v -1.5 3 2.5
v 0.5 3 2.5
v 2.5 3 2.5
v 3.5 3 2.5
v 4.5 3 2.5
v 4.5 3 1.5
v 5.5 3 1.5
v 4.5 3 -0.5
v 5.5 3 -0.5
v 4.5 3 -4.5
v 5.5 3 -4.5
v 4.5 3 -5.5
v 5.5 3 -5.5
v -4.5 3 -6.5
v -2.5 3 -6.5
v 2.5 3 -6.5
v 4.5 3 -6.5
v -4.5 3 -7.5
v -2.5 3 -7.5
v 2.5 3 -7.5
v 4.5 3 -7.5

# faces
f 5/2/1 4/2/1 3/2/1
f 6/2/1 4/2/1 5/2/1
f 9/2/1 2/2/1 1/2/1
f 10/2/1 2/2/1 9/2/1
f 11/2/1 8/2/1 7/2/1
f 12/2/1 8/2/1 11/2/1
f 19/1/1 16/1/1 15/1/1
f 20/1/1 18/1/1 17/1/1
f 21/1/1 18/1/1 20/1/1
f 22/1/1 18/1/1 21/1/1
f 23/2/1 14/2/1 13/2/1
f 24/1/1 19/1/1 15/1/1
f 24/1/1 20/1/1 19/1/1
f 24/1/1 21/1/1 20/1/1
f 25/1/1 21/1/1 24/1/1
f 26/1/1 18/1/1 22/1/1
f 27/1/1 18/1/1 26/1/1
f 29/2/1 23/2/1 13/2/1
f 30/1/1 25/1/1 24/1/1
f 30/2/1 23/2/1 29/2/1
f 30/1/1 24/1/1 23/1/1
f 30/1/1 27/1/1 26/1/1
f 30/1/1 26/1/1 25/1/1
f 31/2/1 28/2/1 27/2/1
f 31/1/1 27/1/1 30/1/1
f 32/2/1 28/2/1 31/2/1
f 37/2/1 34/2/1 33/2/1
f 38/2/1 34/2/1 37/2/1
f 39/2/1 36/2/1 35/2/1
f 40/2/1 36/2/1 39/2/1
f 43/2/1 42/2/1 41/2/1
f 44/2/1 42/2/1 43/2/1
f 47/2/1 46/2/1 45/2/1
f 48/2/1 46/2/1 47/2/1
f 51/2/1 50/2/1 49/2/1
f 52/2/1 50/2/1 51/2/1
f 55/2/1 54/2/1 53/2/1
f 56/2/1 54/2/1 55/2/1
f 61/2/1 58/2/1 57/2/1
f 62/2/1 58/2/1 61/2/1
f 63/2/1 60/2/1 59/2/1
f 64/2/1 60/2/1 63/2/1
f 67/2/1 66/2/1 65/2/1
f 68/2/1 66/2/1 67/2/1
f 69/2/2 70/2/2 71/2/2
f 71/2/2 70/2/2 72/2/2
f 73/2/2 74/2/2 75/2/2
f 75/2/2 74/2/2 76/2/2
f 77/2/2 78/2/2 79/2/2
f 79/2/2 78/2/2 80/2/2
f 81/2/2 82/2/2 83/2/2
f 83/2/2 82/2/2 84/2/2
f 85/2/2 86/2/2 87/2/2
f 87/2/2 86/2/2 88/2/2
f 89/2/2 90/2/2 91/2/2
f 91/2/2 90/2/2 92/2/2
f 93/2/2 94/2/2 95/2/2
f 95/2/2 94/2/2 96/2/2
f 97/2/2 98/2/2 99/2/2
f 99/2/2 98/2/2 100/2/2
f 101/2/2 102/2/2 109/2/2
f 103/1/2 104/1/2 110/1/2
f 110/1/2 104/1/2 111/1/2
f 107/1/2 108/1/2 113/1/2
f 113/1/2 108/1/2 114/1/2
f 101/2/2 109/2/2 116/2/2
f 111/1/2 112/1/2 117/1/2
f 116/2/2 109/2/2 117/2/2
f 109/1/2 110/1/2 117/1/2
f 110/1/2 111/1/2 117/1/2
f 117/1/2 112/1/2 118/1/2
f 118/1/2 112/1/2 119/1/2
f 119/1/2 112/1/2 120/1/2
f 105/1/2 106/1/2 121/1/2
f 114/2/2 115/2/2 123/2/2
f 117/1/2 118/1/2 124/1/2
f 124/1/2 118/1/2 125/1/2
f 120/1/2 121/1/2 126/1/2
f 119/1/2 120/1/2 126/1/2
f 121/1/2 106/1/2 127/1/2
f 126/1/2 121/1/2 127/1/2
f 122/1/2 123/1/2 128/1/2
f 123/2/2 115/2/2 129/2/2
f 128/1/2 123/1/2 129/1/2
f 129/2/2 115/2/2 130/2/2
f 131/2/2 132/2/2 137/2/2
f 137/2/2 132/2/2 138/2/2
f 133/2/2 134/2/2 139/2/2
f 139/2/2 134/2/2 140/2/2
f 135/2/2 136/2/2 141/2/2
f 140/2/2 134/2/2 145/2/2
f 145/2/2 134/2/2 146/2/2
f 141/2/2 142/2/2 147/2/2
f 135/2/2 141/2/2 147/2/2
f 147/2/2 142/2/2 148/2/2
f 143/2/2 144/2/2 149/2/2
f 149/2/2 144/2/2 150/2/2
f 135/2/2 147/2/2 151/2/2
f 151/2/2 147/2/2 152/2/2
f 155/2/3 154/2/3 153/2/3
f 156/2/3 154/2/3 155/2/3
f 157/2/3 154/2/3 156/2/3
f 158/2/3 154/2/3 157/2/3
f 159/2/3 157/2/3 156/2/3
f 160/2/3 157/2/3 159/2/3
f 165/2/3 162/2/3 161/2/3
f 166/2/3 162/2/3 165/2/3
f 167/2/3 164/2/3 163/2/3
f 168/2/3 164/2/3 167/2/3
f 172/2/3 170/2/3 169/2/3
f 173/2/3 170/2/3 172/2/3
f 175/2/3 172/2/3 171/2/3
f 175/2/3 174/2/3 173/2/3
f 175/2/3 173/2/3 172/2/3
f 176/2/3 174/2/3 175/2/3
f 177/2/3 175/2/3 171/2/3
f 178/2/3 175/2/3 177/2/3
f 181/2/3 180/2/3 179/2/3
f 182/2/3 180/2/3 181/2/3
f 187/1/3 184/1/3 183/1/3
f 188/1/3 186/1/3 185/1/3
f 189/1/3 187/1/3 183/1/3
f 189/1/3 188/1/3 187/1/3
f 190/1/3 188/1/3 189/1/3
f 191/1/3 186/1/3 188/1/3
f 191/1/3 188/1/3 190/1/3
f 192/1/3 186/1/3 191/1/3
f 194/1/3 191/1/3 190/1/3
f 195/1/3 191/1/3 194/1/3
f 197/1/3 194/1/3 193/1/3
f 197/1/3 196/1/3 195/1/3
f 197/1/3 195/1/3 194/1/3
f 198/1/3 196/1/3 197/1/3
f 199/1/3 197/1/3 193/1/3
f 200/1/3 197/1/3 199/1/3
f 201/1/3 196/1/3 198/1/3
f 202/1/3 196/1/3 201/1/3
f 207/1/3 204/1/3 203/1/3
f 208/1/3 204/1/3 207/1/3
f 209/2/3 206/2/3 205/2/3
f 210/2/3 206/2/3 209/2/3
f 213/2/3 212/2/3 211/2/3
f 214/2/3 212/2/3 213/2/3
f 217/2/3 216/2/3 215/2/3
f 218/2/3 216/2/3 217/2/3
f 221/2/3 220/2/3 219/2/3
f 222/2/3 220/2/3 221/2/3
f 225/2/3 224/2/3 223/2/3
f 226/2/3 224/2/3 225/2/3
f 229/2/3 228/2/3 227/2/3
f 230/2/3 228/2/3 229/2/3
f 233/2/3 232/2/3 231/2/3
f 234/2/3 232/2/3 233/2/3
f 235/2/4 236/2/4 237/2/4
f 237/2/4 236/2/4 238/2/4
f 239/2/4 240/2/4 241/2/4
f 241/2/4 240/2/4 242/2/4
f 243/2/4 244/2/4 245/2/4
f 245/2/4 244/2/4 246/2/4
f 247/2/4 248/2/4 249/2/4
f 249/2/4 248/2/4 250/2/4
f 251/2/4 252/2/4 253/2/4
f 253/2/4 252/2/4 254/2/4
f 255/2/4 256/2/4 257/2/4
f 257/2/4 256/2/4 258/2/4
f 259/2/4 260/2/4 263/2/4
f 263/2/4 260/2/4 264/2/4
f 261/2/4 262/2/4 265/2/4
f 265/2/4 262/2/4 266/2/4
f 267/1/4 268/1/4 269/1/4
f 267/1/4 269/1/4 271/1/4
f 269/1/4 270/1/4 271/1/4
f 271/1/4 270/1/4 272/1/4
f 272/1/4 270/1/4 273/1/4
f 273/1/4 270/1/4 274/1/4
f 274/1/4 270/1/4 276/1/4
f 276/1/4 270/1/4 277/1/4
f 275/1/4 276/1/4 277/1/4
f 277/1/4 270/1/4 278/1/4
f 275/1/4 277/1/4 279/1/4
f 279/1/4 277/1/4 280/1/4
f 275/1/4 279/1/4 281/1/4
f 281/1/4 279/1/4 282/1/4
f 282/2/4 283/2/4 284/2/4
f 284/2/4 283/2/4 285/2/4
f 286/2/4 287/2/4 288/2/4
f 288/2/4 287/2/4 289/2/4
f 290/2/4 291/2/4 292/2/4
f 290/2/4 292/2/4 294/2/4
f 292/2/4 293/2/4 294/2/4
f 294/2/4 293/2/4 295/2/4
f 296/2/4 297/2/4 299/2/4
f 298/2/4 299/2/4 300/2/4
f 299/2/4 297/2/4 301/2/4
f 300/2/4 299/2/4 301/2/4
f 309/2/5 303/2/5 302/2/5
f 310/2/5 303/2/5 309/2/5
f 311/2/5 305/2/5 304/2/5
f 312/2/5 305/2/5 311/2/5
f 313/2/5 307/2/5 306/2/5
f 314/2/5 307/2/5 313/2/5
f 316/2/5 309/2/5 308/2/5
f 317/1/5 312/1/5 311/1/5
f 317/2/5 309/2/5 316/2/5
f 317/1/5 310/1/5 309/1/5
f 317/1/5 314/1/5 313/1/5
f 317/1/5 313/1/5 312/1/5
f 317/1/5 311/1/5 310/1/5
f 318/2/5 315/2/5 314/2/5
f 318/1/5 314/1/5 317/1/5
f 319/2/5 315/2/5 318/2/5
f 321/1/5 318/1/5 317/1/5
f 322/1/5 318/1/5 321/1/5
f 324/2/5 321/2/5 320/2/5
f 325/1/5 322/1/5 321/1/5
f 325/2/5 321/2/5 324/2/5
f 326/2/5 323/2/5 322/2/5
f 326/1/5 322/1/5 325/1/5
f 327/2/5 323/2/5 326/2/5
f 328/1/5 326/1/5 325/1/5
f 330/1/5 328/1/5 325/1/5
f 330/2/5 329/2/5 328/2/5
f 331/2/5 329/2/5 330/2/5
f 332/1/5 330/1/5 325/1/5
f 333/1/5 330/1/5 332/1/5
f 334/1/5 330/1/5 333/1/5
f 335/1/5 330/1/5 334/1/5
f 336/2/5 334/2/5 333/2/5
f 337/2/5 334/2/5 336/2/5
f 342/2/5 339/2/5 338/2/5
f 343/2/5 339/2/5 342/2/5
f 344/2/5 341/2/5 340/2/5
f 345/2/5 341/2/5 344/2/5
f 348/2/5 347/2/5 346/2/5
f 349/2/5 347/2/5 348/2/5
f 353/2/5 351/2/5 350/2/5
f 354/2/5 351/2/5 353/2/5
f 355/2/5 353/2/5 352/2/5
f 356/2/5 353/2/5 355/2/5
f 359/2/5 358/2/5 357/2/5
f 360/2/5 358/2/5 359/2/5
f 363/2/5 362/2/5 361/2/5
f 364/2/5 362/2/5 363/2/5
f 369/2/5 366/2/5 365/2/5
f 370/2/5 366/2/5 369/2/5
f 371/2/5 368/2/5 367/2/5
f 372/2/5 368/2/5 371/2/5
f 373/2/6 374/2/6 375/2/6
f 375/2/6 374/2/6 376/2/6
f 377/2/6 378/2/6 379/2/6
f 379/2/6 378/2/6 380/2/6
f 383/2/6 384/2/6 385/2/6
f 385/2/6 384/2/6 386/2/6
f 381/2/6 382/2/6 387/2/6
f 387/2/6 382/2/6 388/2/6
f 389/2/6 390/2/6 391/2/6
f 391/2/6 390/2/6 392/2/6
f 393/2/6 394/2/6 401/2/6
f 401/2/6 394/2/6 402/2/6
f 395/2/6 396/2/6 403/2/6
f 403/2/6 396/2/6 404/2/6
f 397/2/6 398/2/6 405/2/6
f 405/2/6 398/2/6 406/2/6
f 399/2/6 400/2/6 407/2/6
f 407/2/6 400/2/6 408/2/6
f 409/2/6 410/2/6 411/2/6
f 411/2/6 410/2/6 412/2/6
f 413/2/6 414/2/6 415/2/6
f 415/2/6 414/2/6 416/2/6
f 417/2/6 418/2/6 421/2/6
f 421/2/6 418/2/6 422/2/6
f 419/2/6 420/2/6 423/2/6
f 423/2/6 420/2/6 424/2/6
f 425/2/6 426/2/6 431/2/6
f 431/2/6 426/2/6 432/2/6
f 427/2/6 428/2/6 433/2/6
f 433/2/6 428/2/6 434/2/6
f 429/2/6 430/2/6 435/2/6
f 435/2/6 430/2/6 436/2/6
f 433/1/6 434/1/6 438/1/6
f 436/1/6 437/1/6 438/1/6
f 435/1/6 436/1/6 438/1/6
f 434/1/6 435/1/6 438/1/6
f 431/1/6 432/1/6 438/1/6
f 432/1/6 433/1/6 438/1/6
f 431/1/6 438/1/6 440/1/6
f 438/2/6 439/2/6 440/2/6
f 440/2/6 439/2/6 441/2/6
f 431/1/6 440/1/6 442/1/6
f 431/1/6 442/1/6 444/1/6
f 442/2/6 443/2/6 444/2/6
f 444/2/6 443/2/6 445/2/6
f 431/1/6 444/1/6 446/1/6
f 446/1/6 444/1/6 447/1/6
f 447/1/6 444/1/6 448/1/6
f 448/1/6 444/1/6 449/1/6
f 446/2/6 447/2/6 450/2/6
f 450/2/6 447/2/6 451/2/6
f 448/2/6 449/2/6 452/2/6
f 452/2/6 449/2/6 453/2/6
