# MagicaVoxel @ Ephtracy

# material
mtllib TopRightArm.mtl
usemtl palette

# normals
vn -1 0 0
vn 1 0 0
vn 0 0 1
vn 0 0 -1
vn 0 -1 0
vn 0 1 0

# texcoords
vt 0.599609 0.5
vt 0.603516 0.5

# verts
v -12.5 28 1.5
v -12.5 28 -0.5
v -12.5 29 2.5
v -12.5 29 1.5
v -12.5 29 -0.5
v -12.5 29 -1.5
v -12.5 30 2.5
v -12.5 30 -1.5
v -8.5 28 2.5
v -8.5 28 1.5
v -8.5 28 -0.5
v -8.5 28 -1.5
v -8.5 29 2.5
v -8.5 29 1.5
v -8.5 29 -0.5
v -8.5 29 -1.5
v -4.5 28 2.5
v -4.5 28 -1.5
v -4.5 29 2.5
v -4.5 29 -1.5
v -4.5 30 2.5
v -4.5 30 -1.5
v -12.5 29 2.5
v -12.5 30 2.5
v -8.5 28 2.5
v -8.5 29 2.5
v -8.5 30 2.5
v -4.5 28 2.5
v -4.5 29 2.5
v -4.5 30 2.5
v -12.5 28 1.5
v -12.5 29 1.5
v -8.5 28 1.5
v -8.5 29 1.5
v -12.5 28 -0.5
v -12.5 29 -0.5
v -8.5 28 -0.5
v -8.5 29 -0.5
v -12.5 29 -1.5
v -12.5 30 -1.5
v -8.5 28 -1.5
v -8.5 29 -1.5
v -8.5 30 -1.5
v -4.5 28 -1.5
v -4.5 29 -1.5
v -4.5 30 -1.5
v -8.5 28 2.5
v -4.5 28 2.5
v -12.5 28 1.5
v -8.5 28 1.5
v -12.5 28 -0.5
v -8.5 28 -0.5
v -8.5 28 -1.5
v -4.5 28 -1.5
v -12.5 29 2.5
v -8.5 29 2.5
v -12.5 29 1.5
v -8.5 29 1.5
v -12.5 29 -0.5
v -8.5 29 -0.5
v -12.5 29 -1.5
v -8.5 29 -1.5
v -12.5 30 2.5
v -8.5 30 2.5
v -4.5 30 2.5
v -12.5 30 -1.5
v -8.5 30 -1.5
v -4.5 30 -1.5

# faces
f 4/2/1 2/2/1 1/2/1
f 5/2/1 2/2/1 4/2/1
f 7/1/1 4/1/1 3/1/1
f 7/1/1 6/1/1 5/1/1
f 7/1/1 5/1/1 4/1/1
f 8/1/1 6/1/1 7/1/1
f 13/1/1 10/1/1 9/1/1
f 14/1/1 10/1/1 13/1/1
f 15/1/1 12/1/1 11/1/1
f 16/1/1 12/1/1 15/1/1
f 17/1/2 18/1/2 19/1/2
f 19/1/2 18/1/2 20/1/2
f 19/2/2 20/2/2 21/2/2
f 21/2/2 20/2/2 22/2/2
f 26/1/3 24/1/3 23/1/3
f 27/1/3 24/1/3 26/1/3
f 28/1/3 26/1/3 25/1/3
f 29/2/3 27/2/3 26/2/3
f 29/1/3 26/1/3 28/1/3
f 30/2/3 27/2/3 29/2/3
f 33/2/3 32/2/3 31/2/3
f 34/2/3 32/2/3 33/2/3
f 35/2/4 36/2/4 37/2/4
f 37/2/4 36/2/4 38/2/4
f 39/1/4 40/1/4 42/1/4
f 42/1/4 40/1/4 43/1/4
f 41/1/4 42/1/4 44/1/4
f 42/2/4 43/2/4 45/2/4
f 44/1/4 42/1/4 45/1/4
f 45/2/4 43/2/4 46/2/4
f 50/1/5 48/1/5 47/1/5
f 51/2/5 50/2/5 49/2/5
f 52/1/5 48/1/5 50/1/5
f 52/2/5 50/2/5 51/2/5
f 53/1/5 48/1/5 52/1/5
f 54/1/5 48/1/5 53/1/5
f 57/1/5 56/1/5 55/1/5
f 58/1/5 56/1/5 57/1/5
f 61/1/5 60/1/5 59/1/5
f 62/1/5 60/1/5 61/1/5
f 63/1/6 64/1/6 66/1/6
f 64/2/6 65/2/6 67/2/6
f 66/1/6 64/1/6 67/1/6
f 67/2/6 65/2/6 68/2/6
