# MagicaVoxel @ Ephtracy

# material
mtllib TopRightLeg.mtl
usemtl palette

# normals
vn -1 0 0
vn 1 0 0
vn 0 0 1
vn 0 0 -1
vn 0 -1 0
vn 0 1 0

# texcoords
vt 0.599609 0.5
vt 0.603516 0.5

# verts
v -4.5 8 1.5
v -4.5 8 -0.5
v -4.5 11 1.5
v -4.5 11 -0.5
v -4.5 14 1.5
v -4.5 14 -0.5
v -4.5 15 1.5
v -4.5 15 -0.5
v -2.5 8 1.5
v -2.5 8 -0.5
v -2.5 11 1.5
v -2.5 11 -0.5
v -2.5 14 1.5
v -2.5 14 -0.5
v -2.5 15 1.5
v -2.5 15 -0.5
v -4.5 8 1.5
v -4.5 11 1.5
v -4.5 14 1.5
v -4.5 15 1.5
v -3.5 8 1.5
v -3.5 11 1.5
v -3.5 14 1.5
v -3.5 15 1.5
v -2.5 8 1.5
v -2.5 11 1.5
v -2.5 14 1.5
v -2.5 15 1.5
v -4.5 8 -0.5
v -4.5 11 -0.5
v -4.5 14 -0.5
v -4.5 15 -0.5
v -3.5 8 -0.5
v -3.5 11 -0.5
v -3.5 14 -0.5
v -3.5 15 -0.5
v -2.5 8 -0.5
v -2.5 11 -0.5
v -2.5 14 -0.5
v -2.5 15 -0.5
v -4.5 8 1.5
v -3.5 8 1.5
v -2.5 8 1.5
v -4.5 8 -0.5
v -3.5 8 -0.5
v -2.5 8 -0.5
v -4.5 15 1.5
v -3.5 15 1.5
v -2.5 15 1.5
v -4.5 15 -0.5
v -3.5 15 -0.5
v -2.5 15 -0.5

# faces
f 3/1/1 2/1/1 1/1/1
f 4/1/1 2/1/1 3/1/1
f 5/2/1 4/2/1 3/2/1
f 6/2/1 4/2/1 5/2/1
f 7/1/1 6/1/1 5/1/1
f 8/1/1 6/1/1 7/1/1
f 9/2/2 10/2/2 11/2/2
f 11/2/2 10/2/2 12/2/2
f 11/1/2 12/1/2 13/1/2
f 13/1/2 12/1/2 14/1/2
f 13/2/2 14/2/2 15/2/2
f 15/2/2 14/2/2 16/2/2
f 21/1/3 18/1/3 17/1/3
f 22/2/3 19/2/3 18/2/3
f 22/1/3 18/1/3 21/1/3
f 23/1/3 20/1/3 19/1/3
f 23/2/3 19/2/3 22/2/3
f 24/1/3 20/1/3 23/1/3
f 25/2/3 22/2/3 21/2/3
f 26/1/3 23/1/3 22/1/3
f 26/2/3 22/2/3 25/2/3
f 27/2/3 24/2/3 23/2/3
f 27/1/3 23/1/3 26/1/3
f 28/2/3 24/2/3 27/2/3
f 29/1/4 30/1/4 33/1/4
f 30/2/4 31/2/4 34/2/4
f 33/1/4 30/1/4 34/1/4
f 31/1/4 32/1/4 35/1/4
f 34/2/4 31/2/4 35/2/4
f 35/1/4 32/1/4 36/1/4
f 33/2/4 34/2/4 37/2/4
f 34/1/4 35/1/4 38/1/4
f 37/2/4 34/2/4 38/2/4
f 35/2/4 36/2/4 39/2/4
f 38/1/4 35/1/4 39/1/4
f 39/2/4 36/2/4 40/2/4
f 44/1/5 42/1/5 41/1/5
f 45/2/5 43/2/5 42/2/5
f 45/1/5 42/1/5 44/1/5
f 46/2/5 43/2/5 45/2/5
f 47/1/6 48/1/6 50/1/6
f 48/2/6 49/2/6 51/2/6
f 50/1/6 48/1/6 51/1/6
f 51/2/6 49/2/6 52/2/6
