# MagicaVoxel @ Ephtracy

# material
mtllib Spine1.mtl
usemtl palette

# normals
vn -1 0 0
vn 1 0 0
vn 0 0 1
vn 0 0 -1
vn 0 -1 0
vn 0 1 0

# texcoords
vt 0.876953 0.5
vt 0.880859 0.5

# verts
v -2.5 7 -1.5
v -2.5 7 -3.5
v -2.5 9 -0.5
v -2.5 9 -1.5
v -2.5 11 -0.5
v -2.5 11 -3.5
v -1.5 8 -0.5
v -1.5 8 -1.5
v -1.5 8 -3.5
v -1.5 8 -4.5
v -1.5 9 0.5
v -1.5 9 -0.5
v -1.5 9 -1.5
v -1.5 11 0.5
v -1.5 11 -0.5
v -1.5 11 -3.5
v -1.5 11 -4.5
v 1.5 8 -0.5
v 1.5 8 -1.5
v 1.5 8 -3.5
v 1.5 8 -4.5
v 1.5 9 0.5
v 1.5 9 -0.5
v 1.5 9 -1.5
v 1.5 11 0.5
v 1.5 11 -0.5
v 1.5 11 -3.5
v 1.5 11 -4.5
v 2.5 7 -1.5
v 2.5 7 -3.5
v 2.5 9 -0.5
v 2.5 9 -1.5
v 2.5 11 -0.5
v 2.5 11 -3.5
v -1.5 9 0.5
v -1.5 11 0.5
v 1.5 9 0.5
v 1.5 11 0.5
v -2.5 9 -0.5
v -2.5 11 -0.5
v -1.5 8 -0.5
v -1.5 9 -0.5
v -1.5 11 -0.5
v 1.5 8 -0.5
v 1.5 9 -0.5
v 1.5 11 -0.5
v 2.5 9 -0.5
v 2.5 11 -0.5
v -2.5 7 -1.5
v -2.5 9 -1.5
v -1.5 8 -1.5
v -1.5 9 -1.5
v 1.5 8 -1.5
v 1.5 9 -1.5
v 2.5 7 -1.5
v 2.5 9 -1.5
v -2.5 7 -3.5
v -2.5 11 -3.5
v -1.5 8 -3.5
v -1.5 11 -3.5
v -0.5 8 -3.5
v 0.5 8 -3.5
v 1.5 8 -3.5
v 1.5 11 -3.5
v 2.5 7 -3.5
v 2.5 11 -3.5
v -1.5 8 -4.5
v -1.5 11 -4.5
v -0.5 8 -4.5
v -0.5 9 -4.5
v 0.5 8 -4.5
v 0.5 9 -4.5
v 1.5 8 -4.5
v 1.5 11 -4.5
v -2.5 7 -1.5
v 2.5 7 -1.5
v -2.5 7 -3.5
v 2.5 7 -3.5
v -1.5 8 -0.5
v 1.5 8 -0.5
v -1.5 8 -1.5
v 1.5 8 -1.5
v -1.5 8 -3.5
v -0.5 8 -3.5
v 0.5 8 -3.5
v 1.5 8 -3.5
v -1.5 8 -4.5
v -0.5 8 -4.5
v 0.5 8 -4.5
v 1.5 8 -4.5
v -1.5 9 0.5
v 1.5 9 0.5
v -2.5 9 -0.5
v -1.5 9 -0.5
v 1.5 9 -0.5
v 2.5 9 -0.5
v -2.5 9 -1.5
v -1.5 9 -1.5
v 1.5 9 -1.5
v 2.5 9 -1.5
v -1.5 11 0.5
v 1.5 11 0.5
v -2.5 11 -0.5
v -1.5 11 -0.5
v 1.5 11 -0.5
v 2.5 11 -0.5
v -2.5 11 -3.5
v -1.5 11 -3.5
v 1.5 11 -3.5
v 2.5 11 -3.5
v -1.5 11 -4.5
v 1.5 11 -4.5

# faces
f 4/1/1 2/1/1 1/1/1
f 5/1/1 4/1/1 3/1/1
f 6/1/1 2/1/1 4/1/1
f 6/1/1 4/1/1 5/1/1
f 12/1/1 8/1/1 7/1/1
f 13/1/1 8/1/1 12/1/1
f 14/1/1 12/1/1 11/1/1
f 15/1/1 12/1/1 14/1/1
f 16/1/1 10/1/1 9/1/1
f 17/1/1 10/1/1 16/1/1
f 18/1/2 19/1/2 23/1/2
f 23/1/2 19/1/2 24/1/2
f 22/1/2 23/1/2 25/1/2
f 25/1/2 23/1/2 26/1/2
f 20/1/2 21/1/2 27/1/2
f 27/1/2 21/1/2 28/1/2
f 29/1/2 30/1/2 32/1/2
f 31/1/2 32/1/2 33/1/2
f 32/1/2 30/1/2 34/1/2
f 33/1/2 32/1/2 34/1/2
f 37/1/3 36/1/3 35/1/3
f 38/1/3 36/1/3 37/1/3
f 42/1/3 40/1/3 39/1/3
f 43/1/3 40/1/3 42/1/3
f 44/1/3 42/1/3 41/1/3
f 45/1/3 42/1/3 44/1/3
f 47/1/3 46/1/3 45/1/3
f 48/1/3 46/1/3 47/1/3
f 51/1/3 50/1/3 49/1/3
f 52/1/3 50/1/3 51/1/3
f 53/1/3 51/1/3 49/1/3
f 55/1/3 53/1/3 49/1/3
f 55/1/3 54/1/3 53/1/3
f 56/1/3 54/1/3 55/1/3
f 57/1/4 58/1/4 59/1/4
f 59/1/4 58/1/4 60/1/4
f 57/1/4 59/1/4 61/1/4
f 57/1/4 61/1/4 62/1/4
f 57/1/4 62/1/4 63/1/4
f 57/1/4 63/1/4 65/1/4
f 63/1/4 64/1/4 65/1/4
f 65/1/4 64/1/4 66/1/4
f 67/1/4 68/1/4 69/1/4
f 69/1/4 68/1/4 70/1/4
f 69/2/4 70/2/4 71/2/4
f 70/1/4 68/1/4 72/1/4
f 71/2/4 70/2/4 72/2/4
f 71/1/4 72/1/4 73/1/4
f 72/1/4 68/1/4 74/1/4
f 73/1/4 72/1/4 74/1/4
f 77/1/5 76/1/5 75/1/5
f 78/1/5 76/1/5 77/1/5
f 81/1/5 80/1/5 79/1/5
f 82/1/5 80/1/5 81/1/5
f 87/1/5 84/1/5 83/1/5
f 88/2/5 85/2/5 84/2/5
f 88/1/5 84/1/5 87/1/5
f 89/1/5 86/1/5 85/1/5
f 89/2/5 85/2/5 88/2/5
f 90/1/5 86/1/5 89/1/5
f 94/1/5 92/1/5 91/1/5
f 95/1/5 92/1/5 94/1/5
f 97/1/5 94/1/5 93/1/5
f 98/1/5 94/1/5 97/1/5
f 99/1/5 96/1/5 95/1/5
f 100/1/5 96/1/5 99/1/5
f 101/1/6 102/1/6 104/1/6
f 104/1/6 102/1/6 105/1/6
f 103/1/6 104/1/6 107/1/6
f 105/1/6 106/1/6 107/1/6
f 104/1/6 105/1/6 107/1/6
f 107/1/6 106/1/6 108/1/6
f 108/1/6 106/1/6 109/1/6
f 109/1/6 106/1/6 110/1/6
f 108/1/6 109/1/6 111/1/6
f 111/1/6 109/1/6 112/1/6
