# MagicaVoxel @ Ephtracy

# material
mtllib Head.mtl
usemtl palette

# normals
vn -1 0 0
vn 1 0 0
vn 0 0 1
vn 0 0 -1
vn 0 -1 0
vn 0 1 0

# texcoords
vt 0.876953 0.5
vt 0.880859 0.5
vt 0.990234 0.5
vt 0.994141 0.5

# verts
v -4.5 18 -3.5
v -4.5 18 -5.5
v -4.5 20 -5.5
v -4.5 20 -6.5
v -4.5 21 -5.5
v -4.5 21 -6.5
v -4.5 24 -3.5
v -4.5 24 -5.5
v -3.5 18 0.5
v -3.5 18 -3.5
v -3.5 18 -5.5
v -3.5 18 -6.5
v -3.5 20 -5.5
v -3.5 20 -6.5
v -3.5 21 -0.5
v -3.5 21 -1.5
v -3.5 21 -2.5
v -3.5 21 -5.5
v -3.5 21 -6.5
v -3.5 22 -0.5
v -3.5 22 -1.5
v -3.5 22 -2.5
v -3.5 23 -0.5
v -3.5 23 -1.5
v -3.5 23 -2.5
v -3.5 23 -5.5
v -3.5 23 -6.5
v -3.5 24 0.5
v -3.5 24 -3.5
v -3.5 24 -4.5
v -3.5 25 -3.5
v -3.5 25 -4.5
v -2.5 18 1.5
v -2.5 18 0.5
v -2.5 20 2.5
v -2.5 20 1.5
v -2.5 21 3.5
v -2.5 21 2.5
v -2.5 24 3.5
v -2.5 24 0.5
v -2.5 24 -3.5
v -2.5 25 0.5
v -2.5 25 -3.5
v -1.5 20 6.5
v -1.5 20 5.5
v -1.5 20 4.5
v -1.5 20 3.5
v -1.5 20 -6.5
v -1.5 20 -7.5
v -1.5 21 7.5
v -1.5 21 6.5
v -1.5 21 5.5
v -1.5 21 4.5
v -1.5 21 3.5
v -1.5 22 -6.5
v -1.5 22 -7.5
v -1.5 24 7.5
v -1.5 24 4.5
v -1.5 24 3.5
v -1.5 24 0.5
v -1.5 25 4.5
v -1.5 25 0.5
v -0.5 20 8.5
v -0.5 20 7.5
v -0.5 21 9.5
v -0.5 21 8.5
v -0.5 21 7.5
v -0.5 23 9.5
v -0.5 23 8.5
v -0.5 24 9.5
v -0.5 24 8.5
v -0.5 24 7.5
v -0.5 24 6.5
v -0.5 24 4.5
v -0.5 25 6.5
v -0.5 25 4.5
v 0.5 20 6.5
v 0.5 20 5.5
v 0.5 20 4.5
v 0.5 20 3.5
v 0.5 21 6.5
v 0.5 21 5.5
v 0.5 21 4.5
v 0.5 21 3.5
v 1.5 18 -5.5
v 1.5 18 -6.5
v 1.5 19 -5.5
v 1.5 19 -6.5
v -1.5 18 -5.5
v -1.5 18 -6.5
v -1.5 19 -5.5
v -1.5 19 -6.5
v -0.5 20 6.5
v -0.5 20 5.5
v -0.5 20 4.5
v -0.5 20 3.5
v -0.5 21 6.5
v -0.5 21 5.5
v -0.5 21 4.5
v -0.5 21 3.5
v 0.5 20 8.5
v 0.5 20 7.5
v 0.5 21 9.5
v 0.5 21 8.5
v 0.5 21 7.5
v 0.5 23 9.5
v 0.5 23 8.5
v 0.5 24 9.5
v 0.5 24 8.5
v 0.5 24 7.5
v 0.5 24 6.5
v 0.5 24 4.5
v 0.5 25 6.5
v 0.5 25 4.5
v 1.5 20 6.5
v 1.5 20 5.5
v 1.5 20 4.5
v 1.5 20 3.5
v 1.5 20 -6.5
v 1.5 20 -7.5
v 1.5 21 7.5
v 1.5 21 6.5
v 1.5 21 5.5
v 1.5 21 4.5
v 1.5 21 3.5
v 1.5 22 -6.5
v 1.5 22 -7.5
v 1.5 24 7.5
v 1.5 24 4.5
v 1.5 24 3.5
v 1.5 24 0.5
v 1.5 25 4.5
v 1.5 25 0.5
v 2.5 18 1.5
v 2.5 18 0.5
v 2.5 20 2.5
v 2.5 20 1.5
v 2.5 21 3.5
v 2.5 21 2.5
v 2.5 24 3.5
v 2.5 24 0.5
v 2.5 24 -3.5
v 2.5 25 0.5
v 2.5 25 -3.5
v 3.5 18 0.5
v 3.5 18 -3.5
v 3.5 18 -5.5
v 3.5 18 -6.5
v 3.5 20 -5.5
v 3.5 20 -6.5
v 3.5 21 -0.5
v 3.5 21 -1.5
v 3.5 21 -2.5
v 3.5 21 -5.5
v 3.5 21 -6.5
v 3.5 22 -0.5
v 3.5 22 -1.5
v 3.5 22 -2.5
v 3.5 23 -0.5
v 3.5 23 -1.5
v 3.5 23 -2.5
v 3.5 23 -5.5
v 3.5 23 -6.5
v 3.5 24 0.5
v 3.5 24 -3.5
v 3.5 24 -4.5
v 3.5 25 -3.5
v 3.5 25 -4.5
v 4.5 18 -3.5
v 4.5 18 -5.5
v 4.5 20 -5.5
v 4.5 20 -6.5
v 4.5 21 -5.5
v 4.5 21 -6.5
v 4.5 24 -3.5
v 4.5 24 -5.5
v -0.5 21 9.5
v -0.5 23 9.5
v -0.5 24 9.5
v 0.5 21 9.5
v 0.5 23 9.5
v 0.5 24 9.5
v -0.5 20 8.5
v -0.5 21 8.5
v 0.5 20 8.5
v 0.5 21 8.5
v -1.5 21 7.5
v -1.5 24 7.5
v -0.5 21 7.5
v -0.5 24 7.5
v 0.5 21 7.5
v 0.5 24 7.5
v 1.5 21 7.5
v 1.5 24 7.5
v -1.5 20 6.5
v -1.5 21 6.5
v -0.5 20 6.5
v -0.5 21 6.5
v -0.5 24 6.5
v -0.5 25 6.5
v 0.5 20 6.5
v 0.5 21 6.5
v 0.5 24 6.5
v 0.5 25 6.5
v 1.5 20 6.5
v 1.5 21 6.5
v -1.5 20 4.5
v -1.5 21 4.5
v -1.5 24 4.5
v -1.5 25 4.5
v -0.5 20 4.5
v -0.5 21 4.5
v -0.5 24 4.5
v -0.5 25 4.5
v 0.5 20 4.5
v 0.5 21 4.5
v 0.5 24 4.5
v 0.5 25 4.5
v 1.5 20 4.5
v 1.5 21 4.5
v 1.5 24 4.5
v 1.5 25 4.5
v -2.5 21 3.5
v -2.5 24 3.5
v -1.5 21 3.5
v -1.5 24 3.5
v 1.5 21 3.5
v 1.5 24 3.5
v 2.5 21 3.5
v 2.5 24 3.5
v -2.5 20 2.5
v -2.5 21 2.5
v 2.5 20 2.5
v 2.5 21 2.5
v -2.5 18 1.5
v -2.5 20 1.5
v 2.5 18 1.5
v 2.5 20 1.5
v -3.5 18 0.5
v -3.5 24 0.5
v -2.5 18 0.5
v -2.5 24 0.5
v -2.5 25 0.5
v -1.5 24 0.5
v -1.5 25 0.5
v 1.5 24 0.5
v 1.5 25 0.5
v 2.5 18 0.5
v 2.5 24 0.5
v 2.5 25 0.5
v 3.5 18 0.5
v 3.5 24 0.5
v -4.5 18 -3.5
v -4.5 24 -3.5
v -3.5 18 -3.5
v -3.5 24 -3.5
v -3.5 25 -3.5
v -2.5 24 -3.5
v -2.5 25 -3.5
v 2.5 24 -3.5
v 2.5 25 -3.5
v 3.5 18 -3.5
v 3.5 24 -3.5
v 3.5 25 -3.5
v 4.5 18 -3.5
v 4.5 24 -3.5
v -0.5 20 7.5
v -0.5 21 7.5
v 0.5 20 7.5
v 0.5 21 7.5
v -1.5 20 5.5
v -1.5 21 5.5
v -0.5 20 5.5
v -0.5 21 5.5
v 0.5 20 5.5
v 0.5 21 5.5
v 1.5 20 5.5
v 1.5 21 5.5
v -1.5 20 3.5
v -1.5 21 3.5
v -0.5 20 3.5
v -0.5 21 3.5
v 0.5 20 3.5
v 0.5 21 3.5
v 1.5 20 3.5
v 1.5 21 3.5
v -3.5 24 -4.5
v -3.5 25 -4.5
v 3.5 24 -4.5
v 3.5 25 -4.5
v -4.5 18 -5.5
v -4.5 20 -5.5
v -4.5 21 -5.5
v -4.5 24 -5.5
v -3.5 18 -5.5
v -3.5 20 -5.5
v -3.5 21 -5.5
v -3.5 23 -5.5
v -1.5 18 -5.5
v -1.5 19 -5.5
v 1.5 18 -5.5
v 1.5 19 -5.5
v 3.5 18 -5.5
v 3.5 20 -5.5
v 3.5 21 -5.5
v 3.5 23 -5.5
v 4.5 18 -5.5
v 4.5 20 -5.5
v 4.5 21 -5.5
v 4.5 24 -5.5
v -4.5 20 -6.5
v -4.5 21 -6.5
v -3.5 18 -6.5
v -3.5 20 -6.5
v -3.5 21 -6.5
v -3.5 23 -6.5
v -1.5 18 -6.5
v -1.5 19 -6.5
v -1.5 20 -6.5
v -1.5 22 -6.5
v 1.5 18 -6.5
v 1.5 19 -6.5
v 1.5 20 -6.5
v 1.5 22 -6.5
v 3.5 18 -6.5
v 3.5 20 -6.5
v 3.5 21 -6.5
v 3.5 23 -6.5
v 4.5 20 -6.5
v 4.5 21 -6.5
v -1.5 20 -7.5
v -1.5 22 -7.5
v 1.5 20 -7.5
v 1.5 22 -7.5
v -2.5 18 1.5
v 2.5 18 1.5
v -3.5 18 0.5
v -2.5 18 0.5
v 2.5 18 0.5
v 3.5 18 0.5
v -4.5 18 -3.5
v -3.5 18 -3.5
v 3.5 18 -3.5
v 4.5 18 -3.5
v -4.5 18 -5.5
v -3.5 18 -5.5
v -1.5 18 -5.5
v 1.5 18 -5.5
v 3.5 18 -5.5
v 4.5 18 -5.5
v -3.5 18 -6.5
v -1.5 18 -6.5
v 1.5 18 -6.5
v 3.5 18 -6.5
v -1.5 19 -5.5
v 1.5 19 -5.5
v -1.5 19 -6.5
v 1.5 19 -6.5
v -0.5 20 8.5
v 0.5 20 8.5
v -0.5 20 7.5
v 0.5 20 7.5
v -1.5 20 6.5
v -0.5 20 6.5
v 0.5 20 6.5
v 1.5 20 6.5
v -1.5 20 5.5
v -0.5 20 5.5
v 0.5 20 5.5
v 1.5 20 5.5
v -1.5 20 4.5
v -0.5 20 4.5
v 0.5 20 4.5
v 1.5 20 4.5
v -1.5 20 3.5
v -0.5 20 3.5
v 0.5 20 3.5
v 1.5 20 3.5
v -2.5 20 2.5
v 2.5 20 2.5
v -2.5 20 1.5
v 2.5 20 1.5
v -4.5 20 -5.5
v -3.5 20 -5.5
v 3.5 20 -5.5
v 4.5 20 -5.5
v -4.5 20 -6.5
v -3.5 20 -6.5
v -1.5 20 -6.5
v 1.5 20 -6.5
v 3.5 20 -6.5
v 4.5 20 -6.5
v -1.5 20 -7.5
v 1.5 20 -7.5
v -0.5 21 9.5
v 0.5 21 9.5
v -0.5 21 8.5
v 0.5 21 8.5
v -1.5 21 7.5
v -0.5 21 7.5
v 0.5 21 7.5
v 1.5 21 7.5
v -1.5 21 6.5
v -0.5 21 6.5
v 0.5 21 6.5
v 1.5 21 6.5
v -1.5 21 5.5
v -0.5 21 5.5
v 0.5 21 5.5
v 1.5 21 5.5
v -1.5 21 4.5
v -0.5 21 4.5
v 0.5 21 4.5
v 1.5 21 4.5
v -2.5 21 3.5
v -1.5 21 3.5
v -0.5 21 3.5
v 0.5 21 3.5
v 1.5 21 3.5
v 2.5 21 3.5
v -2.5 21 2.5
v 2.5 21 2.5
v -4.5 21 -5.5
v -3.5 21 -5.5
v 3.5 21 -5.5
v 4.5 21 -5.5
v -4.5 21 -6.5
v -3.5 21 -6.5
v 3.5 21 -6.5
v 4.5 21 -6.5
v -1.5 22 -6.5
v 1.5 22 -6.5
v -1.5 22 -7.5
v 1.5 22 -7.5
v -3.5 23 -5.5
v 3.5 23 -5.5
v -3.5 23 -6.5
v 3.5 23 -6.5
v -0.5 24 9.5
v 0.5 24 9.5
v -0.5 24 8.5
v 0.5 24 8.5
v -1.5 24 7.5
v -0.5 24 7.5
v 0.5 24 7.5
v 1.5 24 7.5
v -0.5 24 6.5
v 0.5 24 6.5
v -1.5 24 4.5
v -0.5 24 4.5
v 0.5 24 4.5
v 1.5 24 4.5
v -2.5 24 3.5
v -1.5 24 3.5
v 1.5 24 3.5
v 2.5 24 3.5
v -3.5 24 0.5
v -2.5 24 0.5
v -1.5 24 0.5
v 1.5 24 0.5
v 2.5 24 0.5
v 3.5 24 0.5
v -4.5 24 -3.5
v -3.5 24 -3.5
v -2.5 24 -3.5
v 2.5 24 -3.5
v 3.5 24 -3.5
v 4.5 24 -3.5
v -3.5 24 -4.5
v 3.5 24 -4.5
v -4.5 24 -5.5
v 4.5 24 -5.5
v -0.5 25 6.5
v 0.5 25 6.5
v -1.5 25 4.5
v -0.5 25 4.5
v 0.5 25 4.5
v 1.5 25 4.5
v -2.5 25 0.5
v -1.5 25 0.5
v 1.5 25 0.5
v 2.5 25 0.5
v -3.5 25 -3.5
v -2.5 25 -3.5
v 2.5 25 -3.5
v 3.5 25 -3.5
v -3.5 25 -4.5
v 3.5 25 -4.5

# faces
f 3/1/1 2/1/1 1/1/1
f 5/1/1 3/1/1 1/1/1
f 5/1/1 4/1/1 3/1/1
f 6/1/1 4/1/1 5/1/1
f 7/1/1 5/1/1 1/1/1
f 8/1/1 5/1/1 7/1/1
f 13/1/1 12/1/1 11/1/1
f 14/1/1 12/1/1 13/1/1
f 15/1/1 10/1/1 9/1/1
f 16/1/1 10/1/1 15/1/1
f 17/1/1 10/1/1 16/1/1
f 20/1/1 15/1/1 9/1/1
f 20/3/1 16/3/1 15/3/1
f 21/4/1 17/4/1 16/4/1
f 21/3/1 16/3/1 20/3/1
f 22/1/1 10/1/1 17/1/1
f 22/4/1 17/4/1 21/4/1
f 23/4/1 21/4/1 20/4/1
f 23/1/1 20/1/1 9/1/1
f 24/3/1 22/3/1 21/3/1
f 24/4/1 21/4/1 23/4/1
f 25/1/1 10/1/1 22/1/1
f 25/3/1 22/3/1 24/3/1
f 26/1/1 19/1/1 18/1/1
f 27/1/1 19/1/1 26/1/1
f 28/1/1 24/1/1 23/1/1
f 28/1/1 23/1/1 9/1/1
f 28/1/1 25/1/1 24/1/1
f 29/1/1 10/1/1 25/1/1
f 29/1/1 25/1/1 28/1/1
f 31/1/1 30/1/1 29/1/1
f 32/1/1 30/1/1 31/1/1
f 36/1/1 34/1/1 33/1/1
f 38/1/1 36/1/1 35/1/1
f 39/1/1 38/1/1 37/1/1
f 40/1/1 34/1/1 36/1/1
f 40/1/1 38/1/1 39/1/1
f 40/1/1 36/1/1 38/1/1
f 42/1/1 41/1/1 40/1/1
f 43/1/1 41/1/1 42/1/1
f 51/4/1 45/4/1 44/4/1
f 52/4/1 45/4/1 51/4/1
f 53/4/1 47/4/1 46/4/1
f 54/4/1 47/4/1 53/4/1
f 55/1/1 49/1/1 48/1/1
f 56/1/1 49/1/1 55/1/1
f 57/1/1 54/1/1 53/1/1
f 57/1/1 52/1/1 51/1/1
f 57/1/1 51/1/1 50/1/1
f 57/1/1 53/1/1 52/1/1
f 58/1/1 54/1/1 57/1/1
f 59/1/1 54/1/1 58/1/1
f 61/1/1 60/1/1 59/1/1
f 61/1/1 59/1/1 58/1/1
f 62/1/1 60/1/1 61/1/1
f 66/4/1 64/4/1 63/4/1
f 67/4/1 64/4/1 66/4/1
f 68/1/1 66/1/1 65/1/1
f 68/1/1 67/1/1 66/1/1
f 69/1/1 67/1/1 68/1/1
f 70/2/1 69/2/1 68/2/1
f 71/1/1 67/1/1 69/1/1
f 71/2/1 69/2/1 70/2/1
f 72/1/1 67/1/1 71/1/1
f 75/1/1 74/1/1 73/1/1
f 76/1/1 74/1/1 75/1/1
f 81/4/1 78/4/1 77/4/1
f 82/4/1 78/4/1 81/4/1
f 83/4/1 80/4/1 79/4/1
f 84/4/1 80/4/1 83/4/1
f 87/1/1 86/1/1 85/1/1
f 88/1/1 86/1/1 87/1/1
f 89/1/2 90/1/2 91/1/2
f 91/1/2 90/1/2 92/1/2
f 93/4/2 94/4/2 97/4/2
f 97/4/2 94/4/2 98/4/2
f 95/4/2 96/4/2 99/4/2
f 99/4/2 96/4/2 100/4/2
f 101/4/2 102/4/2 104/4/2
f 104/4/2 102/4/2 105/4/2
f 103/1/2 104/1/2 106/1/2
f 104/1/2 105/1/2 106/1/2
f 106/1/2 105/1/2 107/1/2
f 106/2/2 107/2/2 108/2/2
f 107/1/2 105/1/2 109/1/2
f 108/2/2 107/2/2 109/2/2
f 109/1/2 105/1/2 110/1/2
f 111/1/2 112/1/2 113/1/2
f 113/1/2 112/1/2 114/1/2
f 115/4/2 116/4/2 122/4/2
f 122/4/2 116/4/2 123/4/2
f 117/4/2 118/4/2 124/4/2
f 124/4/2 118/4/2 125/4/2
f 119/1/2 120/1/2 126/1/2
f 126/1/2 120/1/2 127/1/2
f 124/1/2 125/1/2 128/1/2
f 122/1/2 123/1/2 128/1/2
f 121/1/2 122/1/2 128/1/2
f 123/1/2 124/1/2 128/1/2
f 128/1/2 125/1/2 129/1/2
f 129/1/2 125/1/2 130/1/2
f 130/1/2 131/1/2 132/1/2
f 129/1/2 130/1/2 132/1/2
f 132/1/2 131/1/2 133/1/2
f 134/1/2 135/1/2 137/1/2
f 136/1/2 137/1/2 139/1/2
f 138/1/2 139/1/2 140/1/2
f 137/1/2 135/1/2 141/1/2
f 140/1/2 139/1/2 141/1/2
f 139/1/2 137/1/2 141/1/2
f 141/1/2 142/1/2 143/1/2
f 143/1/2 142/1/2 144/1/2
f 147/1/2 148/1/2 149/1/2
f 149/1/2 148/1/2 150/1/2
f 145/1/2 146/1/2 151/1/2
f 151/1/2 146/1/2 152/1/2
f 152/1/2 146/1/2 153/1/2
f 145/1/2 151/1/2 156/1/2
f 151/3/2 152/3/2 156/3/2
f 152/4/2 153/4/2 157/4/2
f 156/3/2 152/3/2 157/3/2
f 153/1/2 146/1/2 158/1/2
f 157/4/2 153/4/2 158/4/2
f 156/4/2 157/4/2 159/4/2
f 145/1/2 156/1/2 159/1/2
f 157/3/2 158/3/2 160/3/2
f 159/4/2 157/4/2 160/4/2
f 158/1/2 146/1/2 161/1/2
f 160/3/2 158/3/2 161/3/2
f 154/1/2 155/1/2 162/1/2
f 162/1/2 155/1/2 163/1/2
f 159/1/2 160/1/2 164/1/2
f 145/1/2 159/1/2 164/1/2
f 160/1/2 161/1/2 164/1/2
f 161/1/2 146/1/2 165/1/2
f 164/1/2 161/1/2 165/1/2
f 165/1/2 166/1/2 167/1/2
f 167/1/2 166/1/2 168/1/2
f 169/1/2 170/1/2 171/1/2
f 169/1/2 171/1/2 173/1/2
f 171/1/2 172/1/2 173/1/2
f 173/1/2 172/1/2 174/1/2
f 169/1/2 173/1/2 175/1/2
f 175/1/2 173/1/2 176/1/2
f 180/1/3 178/1/3 177/1/3
f 181/2/3 179/2/3 178/2/3
f 181/1/3 178/1/3 180/1/3
f 182/2/3 179/2/3 181/2/3
f 185/4/3 184/4/3 183/4/3
f 186/4/3 184/4/3 185/4/3
f 189/1/3 188/1/3 187/1/3
f 190/1/3 188/1/3 189/1/3
f 193/1/3 192/1/3 191/1/3
f 194/1/3 192/1/3 193/1/3
f 197/4/3 196/4/3 195/4/3
f 198/4/3 196/4/3 197/4/3
f 203/1/3 200/1/3 199/1/3
f 204/1/3 200/1/3 203/1/3
f 205/4/3 202/4/3 201/4/3
f 206/4/3 202/4/3 205/4/3
f 211/4/3 208/4/3 207/4/3
f 212/4/3 208/4/3 211/4/3
f 213/1/3 210/1/3 209/1/3
f 214/1/3 210/1/3 213/1/3
f 219/4/3 216/4/3 215/4/3
f 220/4/3 216/4/3 219/4/3
f 221/1/3 218/1/3 217/1/3
f 222/1/3 218/1/3 221/1/3
f 225/1/3 224/1/3 223/1/3
f 226/1/3 224/1/3 225/1/3
f 229/1/3 228/1/3 227/1/3
f 230/1/3 228/1/3 229/1/3
f 233/1/3 232/1/3 231/1/3
f 234/1/3 232/1/3 233/1/3
f 237/1/3 236/1/3 235/1/3
f 238/1/3 236/1/3 237/1/3
f 241/1/3 240/1/3 239/1/3
f 242/1/3 240/1/3 241/1/3
f 244/1/3 243/1/3 242/1/3
f 245/1/3 243/1/3 244/1/3
f 249/1/3 247/1/3 246/1/3
f 250/1/3 247/1/3 249/1/3
f 251/1/3 249/1/3 248/1/3
f 252/1/3 249/1/3 251/1/3
f 255/1/3 254/1/3 253/1/3
f 256/1/3 254/1/3 255/1/3
f 258/1/3 257/1/3 256/1/3
f 259/1/3 257/1/3 258/1/3
f 263/1/3 261/1/3 260/1/3
f 264/1/3 261/1/3 263/1/3
f 265/1/3 263/1/3 262/1/3
f 266/1/3 263/1/3 265/1/3
f 267/4/4 268/4/4 269/4/4
f 269/4/4 268/4/4 270/4/4
f 271/4/4 272/4/4 273/4/4
f 273/4/4 272/4/4 274/4/4
f 275/4/4 276/4/4 277/4/4
f 277/4/4 276/4/4 278/4/4
f 279/4/4 280/4/4 281/4/4
f 281/4/4 280/4/4 282/4/4
f 283/4/4 284/4/4 285/4/4
f 285/4/4 284/4/4 286/4/4
f 287/1/4 288/1/4 289/1/4
f 289/1/4 288/1/4 290/1/4
f 291/1/4 292/1/4 295/1/4
f 295/1/4 292/1/4 296/1/4
f 293/1/4 294/1/4 297/1/4
f 297/1/4 294/1/4 298/1/4
f 299/1/4 300/1/4 301/1/4
f 301/1/4 300/1/4 302/1/4
f 298/1/4 294/1/4 306/1/4
f 303/1/4 304/1/4 307/1/4
f 307/1/4 304/1/4 308/1/4
f 305/1/4 306/1/4 309/1/4
f 306/1/4 294/1/4 310/1/4
f 309/1/4 306/1/4 310/1/4
f 311/1/4 312/1/4 314/1/4
f 314/1/4 312/1/4 315/1/4
f 313/1/4 314/1/4 317/1/4
f 315/1/4 316/1/4 317/1/4
f 314/1/4 315/1/4 317/1/4
f 317/1/4 316/1/4 318/1/4
f 318/1/4 316/1/4 319/1/4
f 319/1/4 316/1/4 320/1/4
f 318/1/4 319/1/4 322/1/4
f 322/1/4 319/1/4 323/1/4
f 320/1/4 316/1/4 324/1/4
f 322/1/4 323/1/4 325/1/4
f 323/1/4 324/1/4 325/1/4
f 321/1/4 322/1/4 325/1/4
f 325/1/4 324/1/4 326/1/4
f 326/1/4 324/1/4 327/1/4
f 324/1/4 316/1/4 328/1/4
f 327/1/4 324/1/4 328/1/4
f 326/1/4 327/1/4 329/1/4
f 329/1/4 327/1/4 330/1/4
f 331/1/4 332/1/4 333/1/4
f 333/1/4 332/1/4 334/1/4
f 338/1/5 336/1/5 335/1/5
f 339/1/5 336/1/5 338/1/5
f 342/1/5 338/1/5 337/1/5
f 342/1/5 340/1/5 339/1/5
f 342/1/5 339/1/5 338/1/5
f 343/1/5 340/1/5 342/1/5
f 345/1/5 342/1/5 341/1/5
f 345/1/5 344/1/5 343/1/5
f 345/1/5 343/1/5 342/1/5
f 346/1/5 344/1/5 345/1/5
f 347/1/5 344/1/5 346/1/5
f 348/1/5 344/1/5 347/1/5
f 349/1/5 344/1/5 348/1/5
f 350/1/5 344/1/5 349/1/5
f 351/1/5 347/1/5 346/1/5
f 352/1/5 347/1/5 351/1/5
f 353/1/5 349/1/5 348/1/5
f 354/1/5 349/1/5 353/1/5
f 357/1/5 356/1/5 355/1/5
f 358/1/5 356/1/5 357/1/5
f 361/4/5 360/4/5 359/4/5
f 362/4/5 360/4/5 361/4/5
f 367/4/5 364/4/5 363/4/5
f 368/4/5 364/4/5 367/4/5
f 369/4/5 366/4/5 365/4/5
f 370/4/5 366/4/5 369/4/5
f 375/4/5 372/4/5 371/4/5
f 376/4/5 372/4/5 375/4/5
f 377/4/5 374/4/5 373/4/5
f 378/4/5 374/4/5 377/4/5
f 381/1/5 380/1/5 379/1/5
f 382/1/5 380/1/5 381/1/5
f 387/1/5 384/1/5 383/1/5
f 388/1/5 384/1/5 387/1/5
f 391/1/5 386/1/5 385/1/5
f 392/1/5 386/1/5 391/1/5
f 393/1/5 390/1/5 389/1/5
f 394/1/5 390/1/5 393/1/5
f 397/1/5 396/1/5 395/1/5
f 398/1/5 396/1/5 397/1/5
f 403/1/5 401/1/5 400/1/5
f 403/1/5 402/1/5 401/1/5
f 403/1/5 400/1/5 399/1/5
f 404/1/5 402/1/5 403/1/5
f 405/1/5 402/1/5 404/1/5
f 406/1/5 402/1/5 405/1/5
f 408/1/5 405/1/5 404/1/5
f 409/1/5 405/1/5 408/1/5
f 411/1/5 408/1/5 407/1/5
f 411/1/5 410/1/5 409/1/5
f 411/1/5 409/1/5 408/1/5
f 412/1/5 410/1/5 411/1/5
f 413/1/5 410/1/5 412/1/5
f 414/1/5 410/1/5 413/1/5
f 417/1/5 413/1/5 412/1/5
f 418/1/5 413/1/5 417/1/5
f 421/1/5 419/1/5 418/1/5
f 421/1/5 420/1/5 419/1/5
f 421/1/5 417/1/5 416/1/5
f 421/1/5 418/1/5 417/1/5
f 421/1/5 416/1/5 415/1/5
f 422/1/5 420/1/5 421/1/5
f 423/1/6 424/1/6 427/1/6
f 427/1/6 424/1/6 428/1/6
f 425/1/6 426/1/6 429/1/6
f 429/1/6 426/1/6 430/1/6
f 431/1/6 432/1/6 433/1/6
f 433/1/6 432/1/6 434/1/6
f 435/1/6 436/1/6 437/1/6
f 437/1/6 436/1/6 438/1/6
f 439/2/6 440/2/6 441/2/6
f 441/2/6 440/2/6 442/2/6
f 441/1/6 442/1/6 444/1/6
f 444/1/6 442/1/6 445/1/6
f 444/1/6 445/1/6 447/1/6
f 445/1/6 446/1/6 447/1/6
f 443/1/6 444/1/6 447/1/6
f 447/1/6 446/1/6 448/1/6
f 443/1/6 447/1/6 449/1/6
f 449/1/6 447/1/6 450/1/6
f 448/1/6 446/1/6 451/1/6
f 451/1/6 446/1/6 452/1/6
f 453/1/6 454/1/6 458/1/6
f 458/1/6 454/1/6 459/1/6
f 455/1/6 456/1/6 460/1/6
f 460/1/6 456/1/6 461/1/6
f 457/1/6 458/1/6 464/1/6
f 464/1/6 458/1/6 465/1/6
f 461/1/6 462/1/6 466/1/6
f 466/1/6 462/1/6 467/1/6
f 463/1/6 464/1/6 469/1/6
f 467/1/6 468/1/6 470/1/6
f 463/1/6 469/1/6 471/1/6
f 469/1/6 470/1/6 471/1/6
f 470/1/6 468/1/6 472/1/6
f 471/1/6 470/1/6 472/1/6
f 473/1/6 474/1/6 476/1/6
f 476/1/6 474/1/6 477/1/6
f 475/1/6 476/1/6 480/1/6
f 477/1/6 478/1/6 480/1/6
f 476/1/6 477/1/6 480/1/6
f 480/1/6 478/1/6 481/1/6
f 479/1/6 480/1/6 484/1/6
f 481/1/6 482/1/6 484/1/6
f 480/1/6 481/1/6 484/1/6
f 484/1/6 482/1/6 485/1/6
f 483/1/6 484/1/6 487/1/6
f 485/1/6 486/1/6 487/1/6
f 484/1/6 485/1/6 487/1/6
f 487/1/6 486/1/6 488/1/6
