# MagicaVoxel @ Ephtracy

# material
mtllib Torch.mtl
usemtl palette

# normals
vn -1 0 0
vn 1 0 0
vn 0 0 1
vn 0 0 -1
vn 0 -1 0
vn 0 1 0

# texcoords
vt 0.630859 0.5
vt 0.634766 0.5
vt 0.638672 0.5
vt 0.642578 0.5

# verts
v -1.5 26 7.5
v -1.5 26 5.5
v -1.5 27 7.5
v -1.5 27 5.5
v -0.5 17 6.5
v -0.5 17 5.5
v -0.5 26 8.5
v -0.5 26 7.5
v -0.5 26 6.5
v -0.5 26 5.5
v -0.5 26 4.5
v -0.5 27 8.5
v -0.5 27 7.5
v -0.5 27 6.5
v -0.5 27 5.5
v -0.5 27 4.5
v -0.5 28 7.5
v -0.5 28 6.5
v -0.5 28 5.5
v -0.5 29 7.5
v -0.5 29 6.5
v 0.5 17 7.5
v 0.5 17 6.5
v 0.5 26 7.5
v 0.5 26 6.5
v 0.5 28 6.5
v 0.5 28 5.5
v 0.5 29 6.5
v 0.5 29 5.5
v 0.5 17 6.5
v 0.5 17 5.5
v 0.5 26 6.5
v 0.5 26 5.5
v 0.5 28 7.5
v 0.5 28 6.5
v 0.5 29 7.5
v 0.5 29 6.5
v 1.5 17 7.5
v 1.5 17 6.5
v 1.5 26 8.5
v 1.5 26 7.5
v 1.5 26 6.5
v 1.5 26 5.5
v 1.5 26 4.5
v 1.5 27 8.5
v 1.5 27 7.5
v 1.5 27 6.5
v 1.5 27 5.5
v 1.5 27 4.5
v 1.5 28 7.5
v 1.5 28 6.5
v 1.5 28 5.5
v 1.5 29 6.5
v 1.5 29 5.5
v 2.5 26 7.5
v 2.5 26 5.5
v 2.5 27 7.5
v 2.5 27 5.5
v -0.5 26 8.5
v -0.5 27 8.5
v 1.5 26 8.5
v 1.5 27 8.5
v -1.5 26 7.5
v -1.5 27 7.5
v -0.5 26 7.5
v -0.5 27 7.5
v -0.5 28 7.5
v -0.5 29 7.5
v 0.5 17 7.5
v 0.5 26 7.5
v 0.5 27 7.5
v 0.5 28 7.5
v 0.5 29 7.5
v 1.5 17 7.5
v 1.5 26 7.5
v 1.5 27 7.5
v 1.5 28 7.5
v 2.5 26 7.5
v 2.5 27 7.5
v -0.5 17 6.5
v -0.5 26 6.5
v 0.5 17 6.5
v 0.5 26 6.5
v 0.5 28 6.5
v 0.5 29 6.5
v 1.5 28 6.5
v 1.5 29 6.5
v -0.5 28 6.5
v -0.5 29 6.5
v 0.5 17 6.5
v 0.5 26 6.5
v 0.5 28 6.5
v 0.5 29 6.5
v 1.5 17 6.5
v 1.5 26 6.5
v -1.5 26 5.5
v -1.5 27 5.5
v -0.5 17 5.5
v -0.5 26 5.5
v -0.5 27 5.5
v -0.5 28 5.5
v 0.5 17 5.5
v 0.5 26 5.5
v 0.5 27 5.5
v 0.5 28 5.5
v 0.5 29 5.5
v 1.5 26 5.5
v 1.5 27 5.5
v 1.5 28 5.5
v 1.5 29 5.5
v 2.5 26 5.5
v 2.5 27 5.5
v -0.5 26 4.5
v -0.5 27 4.5
v 1.5 26 4.5
v 1.5 27 4.5
v 0.5 17 7.5
v 1.5 17 7.5
v -0.5 17 6.5
v 0.5 17 6.5
v 1.5 17 6.5
v -0.5 17 5.5
v 0.5 17 5.5
v -0.5 26 8.5
v 1.5 26 8.5
v -1.5 26 7.5
v -0.5 26 7.5
v 0.5 26 7.5
v 1.5 26 7.5
v 2.5 26 7.5
v -0.5 26 6.5
v 0.5 26 6.5
v 1.5 26 6.5
v -1.5 26 5.5
v -0.5 26 5.5
v 0.5 26 5.5
v 1.5 26 5.5
v 2.5 26 5.5
v -0.5 26 4.5
v 1.5 26 4.5
v -0.5 27 8.5
v 1.5 27 8.5
v -1.5 27 7.5
v -0.5 27 7.5
v 0.5 27 7.5
v 1.5 27 7.5
v 2.5 27 7.5
v -0.5 27 6.5
v 1.5 27 6.5
v -1.5 27 5.5
v -0.5 27 5.5
v 0.5 27 5.5
v 1.5 27 5.5
v 2.5 27 5.5
v -0.5 27 4.5
v 1.5 27 4.5
v 0.5 28 7.5
v 1.5 28 7.5
v -0.5 28 6.5
v 0.5 28 6.5
v 1.5 28 6.5
v -0.5 28 5.5
v 0.5 28 5.5
v -0.5 29 7.5
v 0.5 29 7.5
v -0.5 29 6.5
v 0.5 29 6.5
v 1.5 29 6.5
v 0.5 29 5.5
v 1.5 29 5.5

# faces
f 3/2/1 2/2/1 1/2/1
f 4/2/1 2/2/1 3/2/1
f 9/1/1 6/1/1 5/1/1
f 10/1/1 6/1/1 9/1/1
f 12/2/1 8/2/1 7/2/1
f 13/2/1 8/2/1 12/2/1
f 15/2/1 11/2/1 10/2/1
f 16/2/1 11/2/1 15/2/1
f 17/3/1 14/3/1 13/3/1
f 18/4/1 15/4/1 14/4/1
f 18/3/1 14/3/1 17/3/1
f 19/4/1 15/4/1 18/4/1
f 20/4/1 18/4/1 17/4/1
f 21/4/1 18/4/1 20/4/1
f 24/1/1 23/1/1 22/1/1
f 25/1/1 23/1/1 24/1/1
f 28/4/1 27/4/1 26/4/1
f 29/4/1 27/4/1 28/4/1
f 30/1/2 31/1/2 32/1/2
f 32/1/2 31/1/2 33/1/2
f 34/4/2 35/4/2 36/4/2
f 36/4/2 35/4/2 37/4/2
f 38/1/2 39/1/2 41/1/2
f 41/1/2 39/1/2 42/1/2
f 40/2/2 41/2/2 45/2/2
f 45/2/2 41/2/2 46/2/2
f 43/2/2 44/2/2 48/2/2
f 48/2/2 44/2/2 49/2/2
f 46/4/2 47/4/2 50/4/2
f 47/3/2 48/3/2 51/3/2
f 50/4/2 47/4/2 51/4/2
f 51/3/2 48/3/2 52/3/2
f 51/4/2 52/4/2 53/4/2
f 53/4/2 52/4/2 54/4/2
f 55/2/2 56/2/2 57/2/2
f 57/2/2 56/2/2 58/2/2
f 61/2/3 60/2/3 59/2/3
f 62/2/3 60/2/3 61/2/3
f 65/2/3 64/2/3 63/2/3
f 66/2/3 64/2/3 65/2/3
f 71/3/3 67/3/3 66/3/3
f 72/4/3 68/4/3 67/4/3
f 72/3/3 67/3/3 71/3/3
f 73/4/3 68/4/3 72/4/3
f 74/1/3 70/1/3 69/1/3
f 75/1/3 70/1/3 74/1/3
f 76/4/3 72/4/3 71/4/3
f 77/4/3 72/4/3 76/4/3
f 78/2/3 76/2/3 75/2/3
f 79/2/3 76/2/3 78/2/3
f 82/1/3 81/1/3 80/1/3
f 83/1/3 81/1/3 82/1/3
f 86/4/3 85/4/3 84/4/3
f 87/4/3 85/4/3 86/4/3
f 88/4/4 89/4/4 92/4/4
f 92/4/4 89/4/4 93/4/4
f 90/1/4 91/1/4 94/1/4
f 94/1/4 91/1/4 95/1/4
f 96/2/4 97/2/4 99/2/4
f 99/2/4 97/2/4 100/2/4
f 98/1/4 99/1/4 102/1/4
f 102/1/4 99/1/4 103/1/4
f 100/4/4 101/4/4 104/4/4
f 104/4/4 101/4/4 105/4/4
f 104/3/4 105/3/4 108/3/4
f 105/4/4 106/4/4 109/4/4
f 108/3/4 105/3/4 109/3/4
f 109/4/4 106/4/4 110/4/4
f 107/2/4 108/2/4 111/2/4
f 111/2/4 108/2/4 112/2/4
f 113/2/4 114/2/4 115/2/4
f 115/2/4 114/2/4 116/2/4
f 120/1/5 118/1/5 117/1/5
f 121/1/5 118/1/5 120/1/5
f 122/1/5 120/1/5 119/1/5
f 123/1/5 120/1/5 122/1/5
f 127/2/5 125/2/5 124/2/5
f 128/2/5 125/2/5 127/2/5
f 129/2/5 125/2/5 128/2/5
f 131/2/5 127/2/5 126/2/5
f 131/1/5 128/1/5 127/1/5
f 132/1/5 128/1/5 131/1/5
f 133/2/5 130/2/5 129/2/5
f 134/2/5 131/2/5 126/2/5
f 135/2/5 131/2/5 134/2/5
f 136/1/5 133/1/5 132/1/5
f 137/2/5 130/2/5 133/2/5
f 137/1/5 133/1/5 136/1/5
f 138/2/5 130/2/5 137/2/5
f 139/2/5 136/2/5 135/2/5
f 139/2/5 137/2/5 136/2/5
f 140/2/5 137/2/5 139/2/5
f 141/2/6 142/2/6 144/2/6
f 144/2/6 142/2/6 145/2/6
f 145/2/6 142/2/6 146/2/6
f 143/2/6 144/2/6 148/2/6
f 146/2/6 147/2/6 149/2/6
f 143/2/6 148/2/6 150/2/6
f 150/2/6 148/2/6 151/2/6
f 149/2/6 147/2/6 153/2/6
f 153/2/6 147/2/6 154/2/6
f 151/2/6 152/2/6 155/2/6
f 152/2/6 153/2/6 155/2/6
f 155/2/6 153/2/6 156/2/6
f 157/4/6 158/4/6 160/4/6
f 160/4/6 158/4/6 161/4/6
f 159/4/6 160/4/6 162/4/6
f 162/4/6 160/4/6 163/4/6
f 164/4/6 165/4/6 166/4/6
f 166/4/6 165/4/6 167/4/6
f 167/4/6 168/4/6 169/4/6
f 169/4/6 168/4/6 170/4/6
