# MagicaVoxel @ Ephtracy

# material
mtllib TopLeftArm.mtl
usemtl palette

# normals
vn -1 0 0
vn 1 0 0
vn 0 0 1
vn 0 0 -1
vn 0 -1 0
vn 0 1 0

# texcoords
vt 0.599609 0.5
vt 0.603516 0.5

# verts
v 4.5 28 2.5
v 4.5 28 -1.5
v 4.5 29 2.5
v 4.5 29 -1.5
v 4.5 30 2.5
v 4.5 30 -1.5
v 8.5 28 2.5
v 8.5 28 1.5
v 8.5 28 -0.5
v 8.5 28 -1.5
v 8.5 29 2.5
v 8.5 29 1.5
v 8.5 29 -0.5
v 8.5 29 -1.5
v 12.5 28 1.5
v 12.5 28 -0.5
v 12.5 29 2.5
v 12.5 29 1.5
v 12.5 29 -0.5
v 12.5 29 -1.5
v 12.5 30 2.5
v 12.5 30 -1.5
v 4.5 28 2.5
v 4.5 29 2.5
v 4.5 30 2.5
v 8.5 28 2.5
v 8.5 29 2.5
v 8.5 30 2.5
v 12.5 29 2.5
v 12.5 30 2.5
v 8.5 28 1.5
v 8.5 29 1.5
v 12.5 28 1.5
v 12.5 29 1.5
v 8.5 28 -0.5
v 8.5 29 -0.5
v 12.5 28 -0.5
v 12.5 29 -0.5
v 4.5 28 -1.5
v 4.5 29 -1.5
v 4.5 30 -1.5
v 8.5 28 -1.5
v 8.5 29 -1.5
v 8.5 30 -1.5
v 12.5 29 -1.5
v 12.5 30 -1.5
v 4.5 28 2.5
v 8.5 28 2.5
v 8.5 28 1.5
v 12.5 28 1.5
v 8.5 28 -0.5
v 12.5 28 -0.5
v 4.5 28 -1.5
v 8.5 28 -1.5
v 8.5 29 2.5
v 12.5 29 2.5
v 8.5 29 1.5
v 12.5 29 1.5
v 8.5 29 -0.5
v 12.5 29 -0.5
v 8.5 29 -1.5
v 12.5 29 -1.5
v 4.5 30 2.5
v 8.5 30 2.5
v 12.5 30 2.5
v 4.5 30 -1.5
v 8.5 30 -1.5
v 12.5 30 -1.5

# faces
f 3/1/1 2/1/1 1/1/1
f 4/1/1 2/1/1 3/1/1
f 5/2/1 4/2/1 3/2/1
f 6/2/1 4/2/1 5/2/1
f 7/1/2 8/1/2 11/1/2
f 11/1/2 8/1/2 12/1/2
f 9/1/2 10/1/2 13/1/2
f 13/1/2 10/1/2 14/1/2
f 15/2/2 16/2/2 18/2/2
f 18/2/2 16/2/2 19/2/2
f 17/1/2 18/1/2 21/1/2
f 19/1/2 20/1/2 21/1/2
f 18/1/2 19/1/2 21/1/2
f 21/1/2 20/1/2 22/1/2
f 26/1/3 24/1/3 23/1/3
f 27/2/3 25/2/3 24/2/3
f 27/1/3 24/1/3 26/1/3
f 28/2/3 25/2/3 27/2/3
f 29/1/3 28/1/3 27/1/3
f 30/1/3 28/1/3 29/1/3
f 33/2/3 32/2/3 31/2/3
f 34/2/3 32/2/3 33/2/3
f 35/2/4 36/2/4 37/2/4
f 37/2/4 36/2/4 38/2/4
f 39/1/4 40/1/4 42/1/4
f 40/2/4 41/2/4 43/2/4
f 42/1/4 40/1/4 43/1/4
f 43/2/4 41/2/4 44/2/4
f 43/1/4 44/1/4 45/1/4
f 45/1/4 44/1/4 46/1/4
f 49/1/5 48/1/5 47/1/5
f 51/1/5 49/1/5 47/1/5
f 51/2/5 50/2/5 49/2/5
f 52/2/5 50/2/5 51/2/5
f 53/1/5 51/1/5 47/1/5
f 54/1/5 51/1/5 53/1/5
f 57/1/5 56/1/5 55/1/5
f 58/1/5 56/1/5 57/1/5
f 61/1/5 60/1/5 59/1/5
f 62/1/5 60/1/5 61/1/5
f 63/2/6 64/2/6 66/2/6
f 64/1/6 65/1/6 67/1/6
f 66/2/6 64/2/6 67/2/6
f 67/1/6 65/1/6 68/1/6
