# MagicaVoxel @ Ephtracy

# material
mtllib Spine3.mtl
usemtl palette

# normals
vn -1 0 0
vn 1 0 0
vn 0 0 1
vn 0 0 -1
vn 0 -1 0
vn 0 1 0

# texcoords
vt 0.876953 0.5
vt 0.880859 0.5

# verts
v -2.5 14 -0.5
v -2.5 14 -3.5
v -2.5 15 -0.5
v -2.5 15 -1.5
v -2.5 16 -1.5
v -2.5 16 -3.5
v -1.5 14 0.5
v -1.5 14 -0.5
v -1.5 14 -3.5
v -1.5 14 -4.5
v -1.5 15 0.5
v -1.5 15 -0.5
v -1.5 15 -1.5
v -1.5 16 -0.5
v -1.5 16 -1.5
v -1.5 16 -3.5
v -1.5 16 -4.5
v -1.5 17 -1.5
v -1.5 17 -3.5
v -0.5 17 -1.5
v -0.5 17 -3.5
v -0.5 18 -1.5
v -0.5 18 -3.5
v 0.5 14 0.5
v 0.5 14 -0.5
v 0.5 15 0.5
v 0.5 15 -0.5
v -0.5 14 0.5
v -0.5 14 -0.5
v -0.5 15 0.5
v -0.5 15 -0.5
v 0.5 17 -1.5
v 0.5 17 -3.5
v 0.5 18 -1.5
v 0.5 18 -3.5
v 1.5 14 0.5
v 1.5 14 -0.5
v 1.5 14 -3.5
v 1.5 14 -4.5
v 1.5 15 0.5
v 1.5 15 -0.5
v 1.5 15 -1.5
v 1.5 16 -0.5
v 1.5 16 -1.5
v 1.5 16 -3.5
v 1.5 16 -4.5
v 1.5 17 -1.5
v 1.5 17 -3.5
v 2.5 14 -0.5
v 2.5 14 -3.5
v 2.5 15 -0.5
v 2.5 15 -1.5
v 2.5 16 -1.5
v 2.5 16 -3.5
v -1.5 14 0.5
v -1.5 15 0.5
v -0.5 14 0.5
v -0.5 15 0.5
v 0.5 14 0.5
v 0.5 15 0.5
v 1.5 14 0.5
v 1.5 15 0.5
v -2.5 14 -0.5
v -2.5 15 -0.5
v -1.5 14 -0.5
v -1.5 15 -0.5
v -1.5 16 -0.5
v -0.5 14 -0.5
v -0.5 15 -0.5
v 0.5 14 -0.5
v 0.5 15 -0.5
v 1.5 14 -0.5
v 1.5 15 -0.5
v 1.5 16 -0.5
v 2.5 14 -0.5
v 2.5 15 -0.5
v -2.5 15 -1.5
v -2.5 16 -1.5
v -1.5 15 -1.5
v -1.5 16 -1.5
v -1.5 17 -1.5
v -0.5 17 -1.5
v -0.5 18 -1.5
v 0.5 17 -1.5
v 0.5 18 -1.5
v 1.5 15 -1.5
v 1.5 16 -1.5
v 1.5 17 -1.5
v 2.5 15 -1.5
v 2.5 16 -1.5
v -2.5 14 -3.5
v -2.5 16 -3.5
v -1.5 14 -3.5
v -1.5 16 -3.5
v -1.5 17 -3.5
v -0.5 17 -3.5
v -0.5 18 -3.5
v 0.5 17 -3.5
v 0.5 18 -3.5
v 1.5 14 -3.5
v 1.5 16 -3.5
v 1.5 17 -3.5
v 2.5 14 -3.5
v 2.5 16 -3.5
v -1.5 14 -4.5
v -1.5 16 -4.5
v 1.5 14 -4.5
v 1.5 16 -4.5
v -1.5 14 0.5
v -0.5 14 0.5
v 0.5 14 0.5
v 1.5 14 0.5
v -2.5 14 -0.5
v -1.5 14 -0.5
v -0.5 14 -0.5
v 0.5 14 -0.5
v 1.5 14 -0.5
v 2.5 14 -0.5
v -2.5 14 -3.5
v -1.5 14 -3.5
v 1.5 14 -3.5
v 2.5 14 -3.5
v -1.5 14 -4.5
v 1.5 14 -4.5
v -1.5 15 0.5
v -0.5 15 0.5
v 0.5 15 0.5
v 1.5 15 0.5
v -2.5 15 -0.5
v -1.5 15 -0.5
v -0.5 15 -0.5
v 0.5 15 -0.5
v 1.5 15 -0.5
v 2.5 15 -0.5
v -2.5 15 -1.5
v -1.5 15 -1.5
v 1.5 15 -1.5
v 2.5 15 -1.5
v -1.5 16 -0.5
v 1.5 16 -0.5
v -2.5 16 -1.5
v -1.5 16 -1.5
v 1.5 16 -1.5
v 2.5 16 -1.5
v -2.5 16 -3.5
v -1.5 16 -3.5
v 1.5 16 -3.5
v 2.5 16 -3.5
v -1.5 16 -4.5
v 1.5 16 -4.5
v -1.5 17 -1.5
v -0.5 17 -1.5
v 0.5 17 -1.5
v 1.5 17 -1.5
v -1.5 17 -3.5
v -0.5 17 -3.5
v 0.5 17 -3.5
v 1.5 17 -3.5
v -0.5 18 -1.5
v 0.5 18 -1.5
v -0.5 18 -3.5
v 0.5 18 -3.5

# faces
f 3/1/1 2/1/1 1/1/1
f 4/1/1 2/1/1 3/1/1
f 5/1/1 2/1/1 4/1/1
f 6/1/1 2/1/1 5/1/1
f 11/2/1 8/2/1 7/2/1
f 12/2/1 8/2/1 11/2/1
f 14/1/1 13/1/1 12/1/1
f 15/1/1 13/1/1 14/1/1
f 16/1/1 10/1/1 9/1/1
f 17/1/1 10/1/1 16/1/1
f 18/1/1 16/1/1 15/1/1
f 19/1/1 16/1/1 18/1/1
f 22/1/1 21/1/1 20/1/1
f 23/1/1 21/1/1 22/1/1
f 26/2/1 25/2/1 24/2/1
f 27/2/1 25/2/1 26/2/1
f 28/2/2 29/2/2 30/2/2
f 30/2/2 29/2/2 31/2/2
f 32/1/2 33/1/2 34/1/2
f 34/1/2 33/1/2 35/1/2
f 36/2/2 37/2/2 40/2/2
f 40/2/2 37/2/2 41/2/2
f 41/1/2 42/1/2 43/1/2
f 43/1/2 42/1/2 44/1/2
f 38/1/2 39/1/2 45/1/2
f 45/1/2 39/1/2 46/1/2
f 44/1/2 45/1/2 47/1/2
f 47/1/2 45/1/2 48/1/2
f 49/1/2 50/1/2 51/1/2
f 51/1/2 50/1/2 52/1/2
f 52/1/2 50/1/2 53/1/2
f 53/1/2 50/1/2 54/1/2
f 57/2/3 56/2/3 55/2/3
f 58/2/3 56/2/3 57/2/3
f 61/2/3 60/2/3 59/2/3
f 62/2/3 60/2/3 61/2/3
f 65/1/3 64/1/3 63/1/3
f 66/1/3 64/1/3 65/1/3
f 69/1/3 67/1/3 66/1/3
f 70/1/3 69/1/3 68/1/3
f 71/1/3 67/1/3 69/1/3
f 71/1/3 69/1/3 70/1/3
f 73/1/3 67/1/3 71/1/3
f 74/1/3 67/1/3 73/1/3
f 75/1/3 73/1/3 72/1/3
f 76/1/3 73/1/3 75/1/3
f 79/1/3 78/1/3 77/1/3
f 80/1/3 78/1/3 79/1/3
f 82/1/3 81/1/3 80/1/3
f 84/1/3 82/1/3 80/1/3
f 84/1/3 83/1/3 82/1/3
f 85/1/3 83/1/3 84/1/3
f 87/1/3 84/1/3 80/1/3
f 88/1/3 84/1/3 87/1/3
f 89/1/3 87/1/3 86/1/3
f 90/1/3 87/1/3 89/1/3
f 91/1/4 92/1/4 93/1/4
f 93/1/4 92/1/4 94/1/4
f 94/1/4 95/1/4 96/1/4
f 94/1/4 96/1/4 98/1/4
f 96/1/4 97/1/4 98/1/4
f 98/1/4 97/1/4 99/1/4
f 94/1/4 98/1/4 101/1/4
f 101/1/4 98/1/4 102/1/4
f 100/1/4 101/1/4 103/1/4
f 103/1/4 101/1/4 104/1/4
f 105/1/4 106/1/4 107/1/4
f 107/1/4 106/1/4 108/1/4
f 114/2/5 110/2/5 109/2/5
f 115/2/5 110/2/5 114/2/5
f 116/2/5 112/2/5 111/2/5
f 117/2/5 112/2/5 116/2/5
f 119/1/5 115/1/5 114/1/5
f 119/1/5 118/1/5 117/1/5
f 119/1/5 117/1/5 116/1/5
f 119/1/5 116/1/5 115/1/5
f 119/1/5 114/1/5 113/1/5
f 120/1/5 118/1/5 119/1/5
f 121/1/5 118/1/5 120/1/5
f 122/1/5 118/1/5 121/1/5
f 123/1/5 121/1/5 120/1/5
f 124/1/5 121/1/5 123/1/5
f 125/2/6 126/2/6 130/2/6
f 130/2/6 126/2/6 131/2/6
f 127/2/6 128/2/6 132/2/6
f 132/2/6 128/2/6 133/2/6
f 129/1/6 130/1/6 135/1/6
f 135/1/6 130/1/6 136/1/6
f 133/1/6 134/1/6 137/1/6
f 137/1/6 134/1/6 138/1/6
f 139/1/6 140/1/6 142/1/6
f 142/1/6 140/1/6 143/1/6
f 141/1/6 142/1/6 145/1/6
f 145/1/6 142/1/6 146/1/6
f 143/1/6 144/1/6 147/1/6
f 147/1/6 144/1/6 148/1/6
f 146/1/6 147/1/6 149/1/6
f 149/1/6 147/1/6 150/1/6
f 151/1/6 152/1/6 155/1/6
f 155/1/6 152/1/6 156/1/6
f 153/1/6 154/1/6 157/1/6
f 157/1/6 154/1/6 158/1/6
f 159/1/6 160/1/6 161/1/6
f 161/1/6 160/1/6 162/1/6
