# MagicaVoxel @ Ephtracy

# material
mtllib Spine1.mtl
usemtl palette

# normals
vn -1 0 0
vn 1 0 0
vn 0 0 1
vn 0 0 -1
vn 0 -1 0
vn 0 1 0

# texcoords
vt 0.599609 0.5
vt 0.603516 0.5

# verts
v -4.5 15 1.5
v -4.5 15 -0.5
v -4.5 18 0.5
v -4.5 18 -0.5
v -4.5 19 1.5
v -4.5 19 0.5
v -4.5 20 1.5
v -4.5 20 -0.5
v -3.5 17 -0.5
v -3.5 17 -1.5
v -3.5 18 2.5
v -3.5 18 1.5
v -3.5 18 -0.5
v -3.5 19 1.5
v -3.5 20 2.5
v -3.5 20 1.5
v -3.5 20 -0.5
v -3.5 20 -1.5
v -2.5 16 -0.5
v -2.5 16 -1.5
v -2.5 17 2.5
v -2.5 17 1.5
v -2.5 17 -0.5
v -2.5 17 -1.5
v -2.5 18 2.5
v -2.5 18 1.5
v -1.5 16 2.5
v -1.5 16 1.5
v -1.5 17 2.5
v -1.5 17 1.5
v 1.5 16 2.5
v 1.5 16 1.5
v 1.5 17 2.5
v 1.5 17 1.5
v 2.5 16 -0.5
v 2.5 16 -1.5
v 2.5 17 2.5
v 2.5 17 1.5
v 2.5 17 -0.5
v 2.5 17 -1.5
v 2.5 18 2.5
v 2.5 18 1.5
v 3.5 17 -0.5
v 3.5 17 -1.5
v 3.5 18 2.5
v 3.5 18 1.5
v 3.5 18 -0.5
v 3.5 19 1.5
v 3.5 20 2.5
v 3.5 20 1.5
v 3.5 20 -0.5
v 3.5 20 -1.5
v 4.5 15 1.5
v 4.5 15 -0.5
v 4.5 18 0.5
v 4.5 18 -0.5
v 4.5 19 1.5
v 4.5 19 0.5
v 4.5 20 1.5
v 4.5 20 -0.5
v -3.5 18 2.5
v -3.5 20 2.5
v -2.5 17 2.5
v -2.5 18 2.5
v -2.5 20 2.5
v -1.5 16 2.5
v -1.5 17 2.5
v -1.5 18 2.5
v 1.5 16 2.5
v 1.5 17 2.5
v 1.5 18 2.5
v 2.5 17 2.5
v 2.5 18 2.5
v 2.5 20 2.5
v 3.5 18 2.5
v 3.5 20 2.5
v -4.5 15 1.5
v -4.5 19 1.5
v -4.5 20 1.5
v -3.5 15 1.5
v -3.5 18 1.5
v -3.5 19 1.5
v -3.5 20 1.5
v -2.5 17 1.5
v -2.5 18 1.5
v -1.5 16 1.5
v -1.5 17 1.5
v 1.5 16 1.5
v 1.5 17 1.5
v 2.5 17 1.5
v 2.5 18 1.5
v 3.5 15 1.5
v 3.5 18 1.5
v 3.5 19 1.5
v 3.5 20 1.5
v 4.5 15 1.5
v 4.5 19 1.5
v 4.5 20 1.5
v -4.5 15 -0.5
v -4.5 18 -0.5
v -4.5 20 -0.5
v -3.5 15 -0.5
v -3.5 17 -0.5
v -3.5 18 -0.5
v -3.5 20 -0.5
v -2.5 16 -0.5
v -2.5 17 -0.5
v 2.5 16 -0.5
v 2.5 17 -0.5
v 3.5 15 -0.5
v 3.5 17 -0.5
v 3.5 18 -0.5
v 3.5 20 -0.5
v 4.5 15 -0.5
v 4.5 18 -0.5
v 4.5 20 -0.5
v -3.5 17 -1.5
v -3.5 20 -1.5
v -2.5 16 -1.5
v -2.5 17 -1.5
v -2.5 20 -1.5
v 2.5 16 -1.5
v 2.5 17 -1.5
v 2.5 20 -1.5
v 3.5 17 -1.5
v 3.5 20 -1.5
v -4.5 15 1.5
v -3.5 15 1.5
v 3.5 15 1.5
v 4.5 15 1.5
v -4.5 15 -0.5
v -3.5 15 -0.5
v 3.5 15 -0.5
v 4.5 15 -0.5
v -1.5 16 2.5
v 1.5 16 2.5
v -1.5 16 1.5
v 1.5 16 1.5
v -2.5 16 -0.5
v 2.5 16 -0.5
v -2.5 16 -1.5
v 2.5 16 -1.5
v -2.5 17 2.5
v -1.5 17 2.5
v 1.5 17 2.5
v 2.5 17 2.5
v -2.5 17 1.5
v -1.5 17 1.5
v 1.5 17 1.5
v 2.5 17 1.5
v -3.5 17 -0.5
v -2.5 17 -0.5
v 2.5 17 -0.5
v 3.5 17 -0.5
v -3.5 17 -1.5
v -2.5 17 -1.5
v 2.5 17 -1.5
v 3.5 17 -1.5
v -3.5 18 2.5
v -2.5 18 2.5
v 2.5 18 2.5
v 3.5 18 2.5
v -3.5 18 1.5
v -2.5 18 1.5
v 2.5 18 1.5
v 3.5 18 1.5
v -3.5 20 2.5
v -2.5 20 2.5
v 2.5 20 2.5
v 3.5 20 2.5
v -4.5 20 1.5
v -3.5 20 1.5
v -2.5 20 1.5
v 2.5 20 1.5
v 3.5 20 1.5
v 4.5 20 1.5
v -4.5 20 -0.5
v -3.5 20 -0.5
v -2.5 20 -0.5
v 2.5 20 -0.5
v 3.5 20 -0.5
v 4.5 20 -0.5
v -3.5 20 -1.5
v -2.5 20 -1.5
v 2.5 20 -1.5
v 3.5 20 -1.5

# faces
f 3/1/1 2/1/1 1/1/1
f 4/1/1 2/1/1 3/1/1
f 5/1/1 3/1/1 1/1/1
f 6/2/1 4/2/1 3/2/1
f 6/1/1 3/1/1 5/1/1
f 7/2/1 6/2/1 5/2/1
f 8/2/1 4/2/1 6/2/1
f 8/2/1 6/2/1 7/2/1
f 13/1/1 10/1/1 9/1/1
f 14/1/1 12/1/1 11/1/1
f 15/1/1 14/1/1 11/1/1
f 16/1/1 14/1/1 15/1/1
f 17/1/1 10/1/1 13/1/1
f 18/1/1 10/1/1 17/1/1
f 23/1/1 20/1/1 19/1/1
f 24/1/1 20/1/1 23/1/1
f 25/1/1 22/1/1 21/1/1
f 26/1/1 22/1/1 25/1/1
f 29/1/1 28/1/1 27/1/1
f 30/1/1 28/1/1 29/1/1
f 31/1/2 32/1/2 33/1/2
f 33/1/2 32/1/2 34/1/2
f 35/1/2 36/1/2 39/1/2
f 39/1/2 36/1/2 40/1/2
f 37/1/2 38/1/2 41/1/2
f 41/1/2 38/1/2 42/1/2
f 43/1/2 44/1/2 47/1/2
f 45/1/2 46/1/2 48/1/2
f 45/1/2 48/1/2 49/1/2
f 49/1/2 48/1/2 50/1/2
f 47/1/2 44/1/2 51/1/2
f 51/1/2 44/1/2 52/1/2
f 53/1/2 54/1/2 55/1/2
f 55/1/2 54/1/2 56/1/2
f 53/1/2 55/1/2 57/1/2
f 55/2/2 56/2/2 58/2/2
f 57/1/2 55/1/2 58/1/2
f 57/2/2 58/2/2 59/2/2
f 58/2/2 56/2/2 60/2/2
f 59/2/2 58/2/2 60/2/2
f 64/1/3 62/1/3 61/1/3
f 65/1/3 62/1/3 64/1/3
f 67/1/3 64/1/3 63/1/3
f 68/2/3 65/2/3 64/2/3
f 68/1/3 64/1/3 67/1/3
f 69/1/3 67/1/3 66/1/3
f 70/2/3 68/2/3 67/2/3
f 70/1/3 67/1/3 69/1/3
f 71/2/3 65/2/3 68/2/3
f 71/2/3 68/2/3 70/2/3
f 72/1/3 71/1/3 70/1/3
f 73/2/3 65/2/3 71/2/3
f 73/1/3 71/1/3 72/1/3
f 74/2/3 65/2/3 73/2/3
f 75/1/3 74/1/3 73/1/3
f 76/1/3 74/1/3 75/1/3
f 80/1/3 78/1/3 77/1/3
f 81/1/3 78/1/3 80/1/3
f 82/2/3 79/2/3 78/2/3
f 82/1/3 78/1/3 81/1/3
f 83/2/3 79/2/3 82/2/3
f 84/2/3 81/2/3 80/2/3
f 85/2/3 81/2/3 84/2/3
f 86/2/3 84/2/3 80/2/3
f 87/2/3 84/2/3 86/2/3
f 88/2/3 86/2/3 80/2/3
f 90/2/3 89/2/3 88/2/3
f 92/2/3 90/2/3 88/2/3
f 92/2/3 91/2/3 90/2/3
f 92/2/3 88/2/3 80/2/3
f 93/2/3 91/2/3 92/2/3
f 96/1/3 93/1/3 92/1/3
f 96/1/3 94/1/3 93/1/3
f 97/2/3 95/2/3 94/2/3
f 97/1/3 94/1/3 96/1/3
f 98/2/3 95/2/3 97/2/3
f 99/1/4 100/1/4 102/1/4
f 102/1/4 100/1/4 103/1/4
f 100/2/4 101/2/4 104/2/4
f 103/1/4 100/1/4 104/1/4
f 104/2/4 101/2/4 105/2/4
f 102/2/4 103/2/4 106/2/4
f 106/2/4 103/2/4 107/2/4
f 102/2/4 106/2/4 108/2/4
f 102/2/4 108/2/4 110/2/4
f 108/2/4 109/2/4 110/2/4
f 110/2/4 109/2/4 111/2/4
f 110/1/4 111/1/4 114/1/4
f 111/1/4 112/1/4 114/1/4
f 112/2/4 113/2/4 115/2/4
f 114/1/4 112/1/4 115/1/4
f 115/2/4 113/2/4 116/2/4
f 117/1/4 118/1/4 120/1/4
f 120/1/4 118/1/4 121/1/4
f 119/1/4 120/1/4 122/1/4
f 120/2/4 121/2/4 123/2/4
f 122/1/4 120/1/4 123/1/4
f 123/2/4 121/2/4 124/2/4
f 123/1/4 124/1/4 125/1/4
f 125/1/4 124/1/4 126/1/4
f 131/1/5 128/1/5 127/1/5
f 132/2/5 129/2/5 128/2/5
f 132/1/5 128/1/5 131/1/5
f 133/1/5 130/1/5 129/1/5
f 133/2/5 129/2/5 132/2/5
f 134/1/5 130/1/5 133/1/5
f 137/1/5 136/1/5 135/1/5
f 138/1/5 136/1/5 137/1/5
f 141/1/5 140/1/5 139/1/5
f 142/1/5 140/1/5 141/1/5
f 147/1/5 144/1/5 143/1/5
f 148/1/5 144/1/5 147/1/5
f 149/1/5 146/1/5 145/1/5
f 150/1/5 146/1/5 149/1/5
f 155/1/5 152/1/5 151/1/5
f 156/1/5 152/1/5 155/1/5
f 157/1/5 154/1/5 153/1/5
f 158/1/5 154/1/5 157/1/5
f 163/1/5 160/1/5 159/1/5
f 164/1/5 160/1/5 163/1/5
f 165/1/5 162/1/5 161/1/5
f 166/1/5 162/1/5 165/1/5
f 167/1/6 168/1/6 172/1/6
f 168/2/6 169/2/6 173/2/6
f 172/1/6 168/1/6 173/1/6
f 169/1/6 170/1/6 174/1/6
f 173/2/6 169/2/6 174/2/6
f 174/1/6 170/1/6 175/1/6
f 172/2/6 173/2/6 177/2/6
f 175/2/6 176/2/6 177/2/6
f 174/2/6 175/2/6 177/2/6
f 173/2/6 174/2/6 177/2/6
f 171/2/6 172/2/6 177/2/6
f 177/2/6 176/2/6 178/2/6
f 178/2/6 176/2/6 179/2/6
f 179/2/6 176/2/6 180/2/6
f 180/2/6 176/2/6 181/2/6
f 181/2/6 176/2/6 182/2/6
f 178/1/6 179/1/6 183/1/6
f 179/2/6 180/2/6 184/2/6
f 183/1/6 179/1/6 184/1/6
f 180/1/6 181/1/6 185/1/6
f 184/2/6 180/2/6 185/2/6
f 185/1/6 181/1/6 186/1/6
