# MagicaVoxel @ Ephtracy

# material
mtllib Spine3.mtl
usemtl palette

# normals
vn -1 0 0
vn 1 0 0
vn 0 0 1
vn 0 0 -1
vn 0 -1 0
vn 0 1 0

# texcoords
vt 0.599609 0.5
vt 0.603516 0.5

# verts
v -4.5 26 3.5
v -4.5 26 -2.5
v -4.5 27 3.5
v -4.5 27 -2.5
v -4.5 31 3.5
v -4.5 31 -2.5
v -3.5 26 -2.5
v -3.5 26 -3.5
v -3.5 27 4.5
v -3.5 27 3.5
v -3.5 27 -2.5
v -3.5 27 -3.5
v -3.5 28 4.5
v -3.5 28 3.5
v -3.5 30 4.5
v -3.5 30 3.5
v -3.5 30 -2.5
v -3.5 30 -3.5
v -3.5 31 3.5
v -3.5 31 -2.5
v -3.5 32 3.5
v -3.5 32 -2.5
v -2.5 30 4.5
v -2.5 30 3.5
v -2.5 31 4.5
v -2.5 31 3.5
v -1.5 30 -2.5
v -1.5 30 -3.5
v -1.5 31 -2.5
v -1.5 31 -3.5
v -1.5 32 1.5
v -1.5 32 0.5
v -1.5 33 1.5
v -1.5 33 0.5
v -0.5 32 0.5
v -0.5 32 -0.5
v -0.5 33 0.5
v -0.5 33 -0.5
v 0.5 29 4.5
v 0.5 29 3.5
v 0.5 29 -2.5
v 0.5 29 -3.5
v 0.5 30 4.5
v 0.5 30 3.5
v 0.5 30 -2.5
v 0.5 30 -3.5
v 1.5 27 -2.5
v 1.5 27 -3.5
v 1.5 28 4.5
v 1.5 28 3.5
v 1.5 29 4.5
v 1.5 29 3.5
v 1.5 29 -2.5
v 1.5 29 -3.5
v 2.5 26 -2.5
v 2.5 26 -3.5
v 2.5 27 4.5
v 2.5 27 3.5
v 2.5 27 -2.5
v 2.5 27 -3.5
v 2.5 28 4.5
v 2.5 28 3.5
v -2.5 26 -2.5
v -2.5 26 -3.5
v -2.5 27 4.5
v -2.5 27 3.5
v -2.5 27 -2.5
v -2.5 27 -3.5
v -2.5 28 4.5
v -2.5 28 3.5
v -1.5 27 -2.5
v -1.5 27 -3.5
v -1.5 28 4.5
v -1.5 28 3.5
v -1.5 29 4.5
v -1.5 29 3.5
v -1.5 29 -2.5
v -1.5 29 -3.5
v -0.5 29 4.5
v -0.5 29 3.5
v -0.5 29 -2.5
v -0.5 29 -3.5
v -0.5 30 4.5
v -0.5 30 3.5
v -0.5 30 -2.5
v -0.5 30 -3.5
v 0.5 32 0.5
v 0.5 32 -0.5
v 0.5 33 0.5
v 0.5 33 -0.5
v 1.5 30 -2.5
v 1.5 30 -3.5
v 1.5 31 -2.5
v 1.5 31 -3.5
v 1.5 32 1.5
v 1.5 32 0.5
v 1.5 33 1.5
v 1.5 33 0.5
v 2.5 30 4.5
v 2.5 30 3.5
v 2.5 31 4.5
v 2.5 31 3.5
v 3.5 26 -2.5
v 3.5 26 -3.5
v 3.5 27 4.5
v 3.5 27 3.5
v 3.5 27 -2.5
v 3.5 27 -3.5
v 3.5 28 4.5
v 3.5 28 3.5
v 3.5 30 4.5
v 3.5 30 3.5
v 3.5 30 -2.5
v 3.5 30 -3.5
v 3.5 31 3.5
v 3.5 31 -2.5
v 3.5 32 3.5
v 3.5 32 -2.5
v 4.5 26 3.5
v 4.5 26 -2.5
v 4.5 27 3.5
v 4.5 27 -2.5
v 4.5 31 3.5
v 4.5 31 -2.5
v -3.5 27 4.5
v -3.5 28 4.5
v -3.5 30 4.5
v -2.5 27 4.5
v -2.5 28 4.5
v -2.5 29 4.5
v -2.5 30 4.5
v -2.5 31 4.5
v -1.5 28 4.5
v -1.5 29 4.5
v -1.5 30 4.5
v -0.5 29 4.5
v -0.5 30 4.5
v -0.5 31 4.5
v 0.5 29 4.5
v 0.5 30 4.5
v 0.5 31 4.5
v 1.5 28 4.5
v 1.5 29 4.5
v 1.5 30 4.5
v 2.5 27 4.5
v 2.5 28 4.5
v 2.5 29 4.5
v 2.5 30 4.5
v 2.5 31 4.5
v 3.5 27 4.5
v 3.5 28 4.5
v 3.5 30 4.5
v -4.5 26 3.5
v -4.5 27 3.5
v -4.5 31 3.5
v -3.5 27 3.5
v -3.5 28 3.5
v -3.5 30 3.5
v -3.5 31 3.5
v -3.5 32 3.5
v -2.5 26 3.5
v -2.5 27 3.5
v -2.5 28 3.5
v -2.5 30 3.5
v -2.5 31 3.5
v -1.5 26 3.5
v -1.5 28 3.5
v -1.5 29 3.5
v -0.5 26 3.5
v -0.5 27 3.5
v -0.5 29 3.5
v -0.5 30 3.5
v -0.5 31 3.5
v 0.5 26 3.5
v 0.5 27 3.5
v 0.5 29 3.5
v 0.5 30 3.5
v 0.5 31 3.5
v 1.5 26 3.5
v 1.5 28 3.5
v 1.5 29 3.5
v 2.5 26 3.5
v 2.5 27 3.5
v 2.5 28 3.5
v 2.5 30 3.5
v 2.5 31 3.5
v 3.5 27 3.5
v 3.5 28 3.5
v 3.5 30 3.5
v 3.5 31 3.5
v 3.5 32 3.5
v 4.5 26 3.5
v 4.5 27 3.5
v 4.5 31 3.5
v -1.5 32 1.5
v -1.5 33 1.5
v -0.5 32 1.5
v -0.5 33 1.5
v 0.5 32 1.5
v 0.5 33 1.5
v 1.5 32 1.5
v 1.5 33 1.5
v -1.5 32 0.5
v -1.5 33 0.5
v -0.5 32 0.5
v -0.5 33 0.5
v 0.5 32 0.5
v 0.5 33 0.5
v 1.5 32 0.5
v 1.5 33 0.5
v -0.5 32 -0.5
v -0.5 33 -0.5
v 0.5 32 -0.5
v 0.5 33 -0.5
v -4.5 26 -2.5
v -4.5 27 -2.5
v -4.5 31 -2.5
v -3.5 26 -2.5
v -3.5 27 -2.5
v -3.5 30 -2.5
v -3.5 31 -2.5
v -3.5 32 -2.5
v -2.5 26 -2.5
v -2.5 27 -2.5
v -1.5 27 -2.5
v -1.5 29 -2.5
v -1.5 30 -2.5
v -1.5 31 -2.5
v -0.5 29 -2.5
v -0.5 30 -2.5
v -0.5 31 -2.5
v 0.5 29 -2.5
v 0.5 30 -2.5
v 0.5 31 -2.5
v 1.5 27 -2.5
v 1.5 29 -2.5
v 1.5 30 -2.5
v 1.5 31 -2.5
v 2.5 26 -2.5
v 2.5 27 -2.5
v 3.5 26 -2.5
v 3.5 27 -2.5
v 3.5 30 -2.5
v 3.5 31 -2.5
v 3.5 32 -2.5
v 4.5 26 -2.5
v 4.5 27 -2.5
v 4.5 31 -2.5
v -3.5 26 -3.5
v -3.5 27 -3.5
v -3.5 30 -3.5
v -2.5 26 -3.5
v -2.5 27 -3.5
v -2.5 29 -3.5
v -1.5 27 -3.5
v -1.5 29 -3.5
v -1.5 30 -3.5
v -1.5 31 -3.5
v -0.5 29 -3.5
v -0.5 30 -3.5
v -0.5 31 -3.5
v 0.5 29 -3.5
v 0.5 30 -3.5
v 0.5 31 -3.5
v 1.5 27 -3.5
v 1.5 29 -3.5
v 1.5 30 -3.5
v 1.5 31 -3.5
v 2.5 26 -3.5
v 2.5 27 -3.5
v 2.5 29 -3.5
v 3.5 26 -3.5
v 3.5 27 -3.5
v 3.5 30 -3.5
v -4.5 26 3.5
v -2.5 26 3.5
v -1.5 26 3.5
v -0.5 26 3.5
v 0.5 26 3.5
v 1.5 26 3.5
v 2.5 26 3.5
v 4.5 26 3.5
v -1.5 26 2.5
v -0.5 26 2.5
v 0.5 26 2.5
v 1.5 26 2.5
v -3.5 26 1.5
v -2.5 26 1.5
v 2.5 26 1.5
v 3.5 26 1.5
v -3.5 26 -0.5
v -2.5 26 -0.5
v 2.5 26 -0.5
v 3.5 26 -0.5
v -4.5 26 -2.5
v -3.5 26 -2.5
v -2.5 26 -2.5
v 2.5 26 -2.5
v 3.5 26 -2.5
v 4.5 26 -2.5
v -3.5 26 -3.5
v -2.5 26 -3.5
v 2.5 26 -3.5
v 3.5 26 -3.5
v -3.5 27 4.5
v -2.5 27 4.5
v 2.5 27 4.5
v 3.5 27 4.5
v -3.5 27 3.5
v -2.5 27 3.5
v 2.5 27 3.5
v 3.5 27 3.5
v -2.5 27 -2.5
v -1.5 27 -2.5
v 1.5 27 -2.5
v 2.5 27 -2.5
v -2.5 27 -3.5
v -1.5 27 -3.5
v 1.5 27 -3.5
v 2.5 27 -3.5
v -2.5 28 4.5
v -1.5 28 4.5
v 1.5 28 4.5
v 2.5 28 4.5
v -2.5 28 3.5
v -1.5 28 3.5
v 1.5 28 3.5
v 2.5 28 3.5
v -1.5 29 4.5
v -0.5 29 4.5
v 0.5 29 4.5
v 1.5 29 4.5
v -1.5 29 3.5
v -0.5 29 3.5
v 0.5 29 3.5
v 1.5 29 3.5
v -1.5 29 -2.5
v -0.5 29 -2.5
v 0.5 29 -2.5
v 1.5 29 -2.5
v -1.5 29 -3.5
v -0.5 29 -3.5
v 0.5 29 -3.5
v 1.5 29 -3.5
v -0.5 30 4.5
v 0.5 30 4.5
v -0.5 30 3.5
v 0.5 30 3.5
v -0.5 30 -2.5
v 0.5 30 -2.5
v -0.5 30 -3.5
v 0.5 30 -3.5
v -3.5 30 4.5
v -2.5 30 4.5
v 2.5 30 4.5
v 3.5 30 4.5
v -3.5 30 3.5
v -2.5 30 3.5
v 2.5 30 3.5
v 3.5 30 3.5
v -3.5 30 -2.5
v -1.5 30 -2.5
v 1.5 30 -2.5
v 3.5 30 -2.5
v -3.5 30 -3.5
v -1.5 30 -3.5
v 1.5 30 -3.5
v 3.5 30 -3.5
v -2.5 31 4.5
v -0.5 31 4.5
v 0.5 31 4.5
v 2.5 31 4.5
v -4.5 31 3.5
v -3.5 31 3.5
v -2.5 31 3.5
v -0.5 31 3.5
v 0.5 31 3.5
v 2.5 31 3.5
v 3.5 31 3.5
v 4.5 31 3.5
v -4.5 31 -2.5
v -3.5 31 -2.5
v -1.5 31 -2.5
v -0.5 31 -2.5
v 0.5 31 -2.5
v 1.5 31 -2.5
v 3.5 31 -2.5
v 4.5 31 -2.5
v -1.5 31 -3.5
v -0.5 31 -3.5
v 0.5 31 -3.5
v 1.5 31 -3.5
v -3.5 32 3.5
v 3.5 32 3.5
v -1.5 32 1.5
v -0.5 32 1.5
v 0.5 32 1.5
v 1.5 32 1.5
v -1.5 32 0.5
v -0.5 32 0.5
v 0.5 32 0.5
v 1.5 32 0.5
v -0.5 32 -0.5
v 0.5 32 -0.5
v -3.5 32 -2.5
v 3.5 32 -2.5
v -1.5 33 1.5
v -0.5 33 1.5
v 0.5 33 1.5
v 1.5 33 1.5
v -1.5 33 0.5
v -0.5 33 0.5
v 0.5 33 0.5
v 1.5 33 0.5
v -0.5 33 -0.5
v 0.5 33 -0.5

# faces
f 3/1/1 2/1/1 1/1/1
f 4/1/1 2/1/1 3/1/1
f 5/2/1 4/2/1 3/2/1
f 6/2/1 4/2/1 5/2/1
f 11/1/1 8/1/1 7/1/1
f 12/1/1 8/1/1 11/1/1
f 13/1/1 10/1/1 9/1/1
f 14/1/1 10/1/1 13/1/1
f 15/2/1 14/2/1 13/2/1
f 16/2/1 14/2/1 15/2/1
f 17/2/1 12/2/1 11/2/1
f 18/2/1 12/2/1 17/2/1
f 21/2/1 20/2/1 19/2/1
f 22/2/1 20/2/1 21/2/1
f 25/2/1 24/2/1 23/2/1
f 26/2/1 24/2/1 25/2/1
f 29/2/1 28/2/1 27/2/1
f 30/2/1 28/2/1 29/2/1
f 33/2/1 32/2/1 31/2/1
f 34/2/1 32/2/1 33/2/1
f 37/2/1 36/2/1 35/2/1
f 38/2/1 36/2/1 37/2/1
f 43/1/1 40/1/1 39/1/1
f 44/1/1 40/1/1 43/1/1
f 45/1/1 42/1/1 41/1/1
f 46/1/1 42/1/1 45/1/1
f 51/1/1 50/1/1 49/1/1
f 52/1/1 50/1/1 51/1/1
f 53/1/1 48/1/1 47/1/1
f 54/1/1 48/1/1 53/1/1
f 59/1/1 56/1/1 55/1/1
f 60/1/1 56/1/1 59/1/1
f 61/1/1 58/1/1 57/1/1
f 62/1/1 58/1/1 61/1/1
f 63/1/2 64/1/2 67/1/2
f 67/1/2 64/1/2 68/1/2
f 65/1/2 66/1/2 69/1/2
f 69/1/2 66/1/2 70/1/2
f 73/1/2 74/1/2 75/1/2
f 75/1/2 74/1/2 76/1/2
f 71/1/2 72/1/2 77/1/2
f 77/1/2 72/1/2 78/1/2
f 79/1/2 80/1/2 83/1/2
f 83/1/2 80/1/2 84/1/2
f 81/1/2 82/1/2 85/1/2
f 85/1/2 82/1/2 86/1/2
f 87/2/2 88/2/2 89/2/2
f 89/2/2 88/2/2 90/2/2
f 91/2/2 92/2/2 93/2/2
f 93/2/2 92/2/2 94/2/2
f 95/2/2 96/2/2 97/2/2
f 97/2/2 96/2/2 98/2/2
f 99/2/2 100/2/2 101/2/2
f 101/2/2 100/2/2 102/2/2
f 103/1/2 104/1/2 107/1/2
f 107/1/2 104/1/2 108/1/2
f 105/1/2 106/1/2 109/1/2
f 109/1/2 106/1/2 110/1/2
f 109/2/2 110/2/2 111/2/2
f 111/2/2 110/2/2 112/2/2
f 107/2/2 108/2/2 113/2/2
f 113/2/2 108/2/2 114/2/2
f 115/2/2 116/2/2 117/2/2
f 117/2/2 116/2/2 118/2/2
f 119/1/2 120/1/2 121/1/2
f 121/1/2 120/1/2 122/1/2
f 121/2/2 122/2/2 123/2/2
f 123/2/2 122/2/2 124/2/2
f 128/1/3 126/1/3 125/1/3
f 129/2/3 127/2/3 126/2/3
f 129/1/3 126/1/3 128/1/3
f 130/2/3 127/2/3 129/2/3
f 131/2/3 127/2/3 130/2/3
f 133/1/3 130/1/3 129/1/3
f 134/2/3 132/2/3 131/2/3
f 134/1/3 130/1/3 133/1/3
f 134/2/3 131/2/3 130/2/3
f 135/2/3 132/2/3 134/2/3
f 136/1/3 135/1/3 134/1/3
f 137/2/3 132/2/3 135/2/3
f 137/1/3 135/1/3 136/1/3
f 138/2/3 132/2/3 137/2/3
f 140/1/3 138/1/3 137/1/3
f 141/1/3 138/1/3 140/1/3
f 143/1/3 140/1/3 139/1/3
f 144/2/3 141/2/3 140/2/3
f 144/1/3 140/1/3 143/1/3
f 146/1/3 143/1/3 142/1/3
f 147/2/3 144/2/3 143/2/3
f 147/1/3 143/1/3 146/1/3
f 148/2/3 141/2/3 144/2/3
f 148/2/3 144/2/3 147/2/3
f 149/2/3 141/2/3 148/2/3
f 150/1/3 146/1/3 145/1/3
f 151/2/3 147/2/3 146/2/3
f 151/1/3 146/1/3 150/1/3
f 151/2/3 148/2/3 147/2/3
f 152/2/3 148/2/3 151/2/3
f 156/1/3 154/1/3 153/1/3
f 156/2/3 155/2/3 154/2/3
f 157/2/3 155/2/3 156/2/3
f 158/2/3 155/2/3 157/2/3
f 159/2/3 155/2/3 158/2/3
f 161/1/3 156/1/3 153/1/3
f 162/1/3 156/1/3 161/1/3
f 164/2/3 160/2/3 159/2/3
f 164/2/3 159/2/3 158/2/3
f 165/2/3 160/2/3 164/2/3
f 166/2/3 163/2/3 162/2/3
f 166/2/3 162/2/3 161/2/3
f 167/2/3 163/2/3 166/2/3
f 169/1/3 167/1/3 166/1/3
f 170/1/3 167/1/3 169/1/3
f 171/2/3 168/2/3 167/2/3
f 173/2/3 160/2/3 165/2/3
f 174/2/3 170/2/3 169/2/3
f 175/1/3 167/1/3 170/1/3
f 175/2/3 170/2/3 174/2/3
f 176/2/3 172/2/3 171/2/3
f 176/2/3 171/2/3 167/2/3
f 177/2/3 172/2/3 176/2/3
f 178/2/3 160/2/3 173/2/3
f 179/1/3 175/1/3 174/1/3
f 180/1/3 167/1/3 175/1/3
f 180/1/3 175/1/3 179/1/3
f 180/2/3 176/2/3 167/2/3
f 181/2/3 176/2/3 180/2/3
f 182/2/3 180/2/3 179/2/3
f 183/2/3 180/2/3 182/2/3
f 184/2/3 180/2/3 183/2/3
f 186/2/3 160/2/3 178/2/3
f 187/1/3 183/1/3 182/1/3
f 189/2/3 186/2/3 185/2/3
f 190/2/3 160/2/3 186/2/3
f 190/2/3 186/2/3 189/2/3
f 191/2/3 160/2/3 190/2/3
f 192/1/3 187/1/3 182/1/3
f 193/2/3 188/2/3 187/2/3
f 193/1/3 187/1/3 192/1/3
f 193/2/3 189/2/3 188/2/3
f 193/2/3 190/2/3 189/2/3
f 194/2/3 190/2/3 193/2/3
f 197/2/3 196/2/3 195/2/3
f 198/2/3 196/2/3 197/2/3
f 199/1/3 198/1/3 197/1/3
f 200/1/3 198/1/3 199/1/3
f 201/2/3 200/2/3 199/2/3
f 202/2/3 200/2/3 201/2/3
f 203/2/4 204/2/4 205/2/4
f 205/2/4 204/2/4 206/2/4
f 207/2/4 208/2/4 209/2/4
f 209/2/4 208/2/4 210/2/4
f 211/2/4 212/2/4 213/2/4
f 213/2/4 212/2/4 214/2/4
f 215/1/4 216/1/4 218/1/4
f 216/2/4 217/2/4 219/2/4
f 218/1/4 216/1/4 219/1/4
f 219/2/4 217/2/4 220/2/4
f 220/2/4 217/2/4 221/2/4
f 223/2/4 224/2/4 225/2/4
f 221/2/4 222/2/4 227/2/4
f 220/2/4 221/2/4 227/2/4
f 227/2/4 222/2/4 228/2/4
f 225/2/4 226/2/4 229/2/4
f 228/2/4 222/2/4 231/2/4
f 229/2/4 230/2/4 232/2/4
f 225/2/4 229/2/4 232/2/4
f 232/2/4 230/2/4 233/2/4
f 231/2/4 222/2/4 234/2/4
f 223/2/4 225/2/4 235/2/4
f 225/2/4 232/2/4 235/2/4
f 235/2/4 232/2/4 236/2/4
f 234/2/4 222/2/4 238/2/4
f 223/2/4 235/2/4 239/2/4
f 239/2/4 235/2/4 240/2/4
f 237/2/4 238/2/4 243/2/4
f 238/2/4 222/2/4 244/2/4
f 243/2/4 238/2/4 244/2/4
f 244/2/4 222/2/4 245/2/4
f 241/1/4 242/1/4 246/1/4
f 242/2/4 243/2/4 247/2/4
f 246/1/4 242/1/4 247/1/4
f 243/2/4 244/2/4 247/2/4
f 247/2/4 244/2/4 248/2/4
f 249/1/4 250/1/4 252/1/4
f 250/2/4 251/2/4 253/2/4
f 252/1/4 250/1/4 253/1/4
f 253/2/4 251/2/4 254/2/4
f 253/1/4 254/1/4 255/1/4
f 254/2/4 251/2/4 256/2/4
f 255/1/4 254/1/4 256/1/4
f 256/2/4 251/2/4 257/2/4
f 256/1/4 257/1/4 259/1/4
f 257/2/4 258/2/4 260/2/4
f 259/1/4 257/1/4 260/1/4
f 260/2/4 258/2/4 261/2/4
f 260/1/4 261/1/4 263/1/4
f 263/1/4 261/1/4 264/1/4
f 262/1/4 263/1/4 266/1/4
f 263/2/4 264/2/4 267/2/4
f 266/1/4 263/1/4 267/1/4
f 267/2/4 264/2/4 268/2/4
f 265/1/4 266/1/4 270/1/4
f 266/2/4 267/2/4 271/2/4
f 270/1/4 266/1/4 271/1/4
f 269/1/4 270/1/4 272/1/4
f 270/2/4 271/2/4 273/2/4
f 272/1/4 270/1/4 273/1/4
f 271/2/4 267/2/4 274/2/4
f 273/2/4 271/2/4 274/2/4
f 283/2/5 277/2/5 276/2/5
f 283/1/5 278/1/5 277/1/5
f 284/2/5 279/2/5 278/2/5
f 284/1/5 278/1/5 283/1/5
f 285/1/5 280/1/5 279/1/5
f 285/2/5 279/2/5 284/2/5
f 286/2/5 281/2/5 280/2/5
f 286/1/5 280/1/5 285/1/5
f 287/1/5 276/1/5 275/1/5
f 288/2/5 285/2/5 284/2/5
f 288/1/5 276/1/5 287/1/5
f 288/2/5 283/2/5 276/2/5
f 288/2/5 286/2/5 285/2/5
f 288/2/5 284/2/5 283/2/5
f 289/2/5 281/2/5 286/2/5
f 289/2/5 286/2/5 288/2/5
f 289/1/5 282/1/5 281/1/5
f 290/1/5 282/1/5 289/1/5
f 291/2/5 288/2/5 287/2/5
f 291/1/5 287/1/5 275/1/5
f 291/2/5 290/2/5 289/2/5
f 291/2/5 289/2/5 288/2/5
f 292/2/5 290/2/5 291/2/5
f 293/2/5 290/2/5 292/2/5
f 294/1/5 282/1/5 290/1/5
f 294/2/5 290/2/5 293/2/5
f 295/1/5 291/1/5 275/1/5
f 295/1/5 292/1/5 291/1/5
f 296/1/5 292/1/5 295/1/5
f 297/2/5 293/2/5 292/2/5
f 297/1/5 292/1/5 296/1/5
f 298/1/5 294/1/5 293/1/5
f 298/2/5 293/2/5 297/2/5
f 299/1/5 282/1/5 294/1/5
f 299/1/5 294/1/5 298/1/5
f 300/1/5 282/1/5 299/1/5
f 301/1/5 297/1/5 296/1/5
f 302/1/5 297/1/5 301/1/5
f 303/1/5 299/1/5 298/1/5
f 304/1/5 299/1/5 303/1/5
f 309/1/5 306/1/5 305/1/5
f 310/1/5 306/1/5 309/1/5
f 311/1/5 308/1/5 307/1/5
f 312/1/5 308/1/5 311/1/5
f 317/1/5 314/1/5 313/1/5
f 318/1/5 314/1/5 317/1/5
f 319/1/5 316/1/5 315/1/5
f 320/1/5 316/1/5 319/1/5
f 325/1/5 322/1/5 321/1/5
f 326/1/5 322/1/5 325/1/5
f 327/1/5 324/1/5 323/1/5
f 328/1/5 324/1/5 327/1/5
f 333/1/5 330/1/5 329/1/5
f 334/1/5 330/1/5 333/1/5
f 335/1/5 332/1/5 331/1/5
f 336/1/5 332/1/5 335/1/5
f 341/1/5 338/1/5 337/1/5
f 342/1/5 338/1/5 341/1/5
f 343/1/5 340/1/5 339/1/5
f 344/1/5 340/1/5 343/1/5
f 347/1/5 346/1/5 345/1/5
f 348/1/5 346/1/5 347/1/5
f 351/1/5 350/1/5 349/1/5
f 352/1/5 350/1/5 351/1/5
f 353/2/6 354/2/6 357/2/6
f 357/2/6 354/2/6 358/2/6
f 355/2/6 356/2/6 359/2/6
f 359/2/6 356/2/6 360/2/6
f 361/2/6 362/2/6 365/2/6
f 365/2/6 362/2/6 366/2/6
f 363/2/6 364/2/6 367/2/6
f 367/2/6 364/2/6 368/2/6
f 369/2/6 370/2/6 375/2/6
f 370/1/6 371/1/6 376/1/6
f 375/2/6 370/2/6 376/2/6
f 371/2/6 372/2/6 377/2/6
f 376/1/6 371/1/6 377/1/6
f 377/2/6 372/2/6 378/2/6
f 373/2/6 374/2/6 381/2/6
f 381/2/6 374/2/6 382/2/6
f 379/2/6 380/2/6 387/2/6
f 387/2/6 380/2/6 388/2/6
f 383/2/6 384/2/6 389/2/6
f 384/1/6 385/1/6 390/1/6
f 389/2/6 384/2/6 390/2/6
f 385/2/6 386/2/6 391/2/6
f 390/1/6 385/1/6 391/1/6
f 391/2/6 386/2/6 392/2/6
f 393/2/6 394/2/6 395/2/6
f 395/2/6 394/2/6 396/2/6
f 396/2/6 394/2/6 397/2/6
f 397/2/6 394/2/6 398/2/6
f 393/2/6 395/2/6 399/2/6
f 398/2/6 394/2/6 402/2/6
f 399/2/6 400/2/6 403/2/6
f 401/2/6 402/2/6 404/2/6
f 399/2/6 403/2/6 405/2/6
f 403/2/6 404/2/6 405/2/6
f 393/2/6 399/2/6 405/2/6
f 404/2/6 402/2/6 406/2/6
f 405/2/6 404/2/6 406/2/6
f 402/2/6 394/2/6 406/2/6
f 407/2/6 408/2/6 411/2/6
f 408/1/6 409/1/6 412/1/6
f 411/2/6 408/2/6 412/2/6
f 409/2/6 410/2/6 413/2/6
f 412/1/6 409/1/6 413/1/6
f 413/2/6 410/2/6 414/2/6
f 412/2/6 413/2/6 415/2/6
f 415/2/6 413/2/6 416/2/6
